<?xml version="1.0" encoding="UTF-8" standalone="no"?>
<!-- Created with Inkscape (http://www.inkscape.org/) -->

<svg
   width="1000"
   height="1000"
   viewBox="0 0 1000 1000"
   version="1.1"
   id="svg1"
   xml:space="preserve"
   inkscape:version="1.4.2 (ebf0e940d0, 2025-05-08)"
   sodipodi:docname="icon-squared.svg"
   inkscape:export-filename="icon.png"
   inkscape:export-xdpi="96"
   inkscape:export-ydpi="96"
   xmlns:inkscape="http://www.inkscape.org/namespaces/inkscape"
   xmlns:sodipodi="http://sodipodi.sourceforge.net/DTD/sodipodi-0.dtd"
   xmlns="http://www.w3.org/2000/svg"
   xmlns:svg="http://www.w3.org/2000/svg"
   xmlns:rdf="http://www.w3.org/1999/02/22-rdf-syntax-ns#"
   xmlns:cc="http://creativecommons.org/ns#"
   xmlns:dc="http://purl.org/dc/elements/1.1/"><title
     id="title2">Center for Metropolitan Studies</title><sodipodi:namedview
     id="namedview1"
     pagecolor="#ffffff"
     bordercolor="#000000"
     borderopacity="0.25"
     inkscape:showpageshadow="2"
     inkscape:pageopacity="0.0"
     inkscape:pagecheckerboard="0"
     inkscape:deskcolor="#d1d1d1"
     inkscape:document-units="px"
     inkscape:zoom="0.5"
     inkscape:cx="230"
     inkscape:cy="525"
     inkscape:window-width="1920"
     inkscape:window-height="1011"
     inkscape:window-x="0"
     inkscape:window-y="0"
     inkscape:window-maximized="1"
     inkscape:current-layer="layer13"
     showguides="false"
     showgrid="true"
     guidecolor="#ff00ff"
     guideopacity="1"><sodipodi:guide
       position="5.4375,342.23505"
       orientation="0,1"
       id="guide28"
       inkscape:locked="false"
       inkscape:label=""
       inkscape:color="rgb(0,134,229)" /><sodipodi:guide
       position="2,344.73505"
       orientation="0,-1"
       id="guide29"
       inkscape:locked="false" /><inkscape:grid
       id="grid102"
       units="px"
       originx="0"
       originy="0"
       spacingx="0.25"
       spacingy="0.25"
       empcolor="#0099e5"
       empopacity="0.30196078"
       color="#0099e5"
       opacity="0.14901961"
       empspacing="5"
       enabled="true"
       visible="false" /><sodipodi:guide
       position="-0.25,342.23505"
       orientation="0,-1"
       id="guide1"
       inkscape:locked="false" /></sodipodi:namedview><defs
     id="defs1"><clipPath
       clipPathUnits="userSpaceOnUse"
       id="clipPath13"><rect
         style="fill:#141414;fill-opacity:1;stroke-width:25.0421;stroke-linecap:round;stroke-linejoin:round;stroke-miterlimit:3;stroke-dasharray:25.0421, 18.7815"
         id="rect14"
         width="1000"
         height="556.64484"
         x="0"
         y="0" /></clipPath></defs><g
     inkscape:groupmode="layer"
     id="layer13"
     inkscape:label="Graphics"
     style="display:inline"><path
       id="rect302-7"
       style="display:inline;mix-blend-mode:normal;fill:#141414;fill-opacity:1;stroke-width:4.47657;stroke-linecap:round;stroke-linejoin:round;stroke-miterlimit:3;stroke-dasharray:4.47657, 3.35737"
       inkscape:label="Black Squares"
       d="m 616.14649,320.71386 v 30.20703 h 30.20704 v -30.20703 z m -140.89648,17.20703 v 10.29297 h -10.5 v 23.75 h -8.75 v 25.59375 18.15625 h 18.15625 v -18.15625 h 7.4375 v -19.84375 h 12.65625 v -10.29297 h 29 v -29.5 h -18.5 z m -126.6875,9.29297 v 29.5 h -8.1875 v -10 h -38.625 v -10.08789 h -19.25 -29.50195 v 29.5 H 282.50001 291 v 29.96289 7.9336 h -19.24999 v 39.74999 h 39.75 v -14.875 h 27.25 v -32.80859 h 1.625 8.6875 v 27.75 h 28.9375 v -28.9375 -25 h 13.25 26.89844 v -42.6875 h -26.89844 z m 294.5293,30.89648 v 35.15626 h 4.1582 v 32.81249 h -20 v 30.13477 h 30.13477 4.31835 v 24.75586 h -6.0332 v 30.13281 h 30.13477 v -24.75389 h 6.03321 14.41211 v -30.13478 h -14.41211 -6.0879 v -28 h 21.64845 v -50.89844 h -9.25001 -19.89843 v -8.55664 h 10.39257 v -10.64844 h -10.39257 z m 81.9082,10.9043 v 32.5 h 32.5 v -32.5 z M 474.54689,415.7373 v 8.39845 h -26.45313 v 28.45312 h 28.45313 v -7.64845 h 27.20312 V 415.7373 Z m 57.45312,0.375 v 29.60156 h 29.60156 V 416.1123 Z m 37.64844,38.27148 v 21.70703 h 20.80859 v 28.03516 h 28.29297 V 475.833 h -27.39453 v -21.44922 z m 20.80859,49.74219 h -7.95702 -21.70704 V 525.833 h 21.70704 7.95702 z m -242,-41.49805 v 30.58595 h 30.58594 v -30.58595 z m 152.99219,7.08594 v 32 3.75001 h 32 v -32.00001 -3.75 z m -209.57814,3.68555 v 19.62891 0.55664 h -4.38085 v 13.75782 12.12109 h 13.75977 v -13.75977 -1.61133 h 10.25 v -19.62891 -11.06445 z m 423.12892,2.31445 v 31.25001 h 31.25001 v -31.25001 z m -288.30664,18.50001 v 29.08594 h -25.1504 v 29.41406 h 23.38477 v 9.33594 h 32.58399 v -18.98634 h 15.23828 v 39.15039 h 56 v -18.99999 h 21.75 v -31.25001 h -21.75 v -5.75 h -53.20703 v -31.99999 z m -195.16016,17.74999 v 29.5 H 261.0332 276.25 v -29.5 h -15.2168 z m 78.2168,10.93165 v 9.56836 h 9.56835 9.21485 0.4668 v 26.24999 2.00001 H 320 300.50001 v -10 H 277.125 261 221.75 v 39.25 h 39.25 16.125 23.37501 v -1.25 H 320 338.25001 v -26.75 h 19.5 v -28.75 -3.25001 h -19 v -7.06835 h -2.7168 -7.5 -9.21485 z m -147.03126,7.06835 v 32.00001 h 32 v -32.00001 z m 115.0918,64.96875 v 28.00001 h 28 v -28.00001 z m 33.68946,3.53125 v 28 h 28 v -28 z m 64.75,20.75001 v 28 h 28 v -28 z m 233.00001,12.7793 v 47.29297 h 47.29296 v -47.29297 z m -78.16407,8.30663 v 29.41407 h 29.41406 V 640.2998 Z M 443,642.71387 v 28 h 28.00001 v -28 z m -172.74999,6.5 v 28 h 28 v -28 z" /><path
       id="rect100-9"
       style="display:inline;mix-blend-mode:normal;fill:#868485;fill-opacity:1;stroke-width:3.98692;stroke-linecap:round;stroke-linejoin:round;stroke-miterlimit:3;stroke-dasharray:3.98692, 2.99016"
       inkscape:label="Gray Squares"
       d="m 265.5,321.125 v 26 23.75 24.5 h 26 24.00001 14.25 v -26 h -14.25 H 291.5 v -24.5 -23.75 z m 354.79298,1.74999 v 19.04297 h -9.04296 v 36.91407 6.89453 4.64844 h -20.20704 v 46.32616 h 46.32618 v -18.82617 h 10.79491 v -36.91406 -29.6289 h 0.58595 V 322.87499 Z M 437.25001,329.375 v 29 11.5 h 29 v -29 -11.5 z m 86,1 v 29.5 h 29.5 v -29.5 z m -153.5,19.75 v 19 8.75 H 388.75 v -19 -8.75 z m 173.70117,29.90429 v 18.0957 9.75 h 18.09766 v -18.0957 -9.75 z M 437.96876,389.375 v 28.03124 h 28.03125 V 389.375 Z m 28.03125,28.03124 v 26.50001 15.96874 18 h 18.5 v 25.48633 h 27.48633 v -27.48633 h -19.48633 v -24.5 -18 -15.96875 z m -251,-9.28125 v 25.5 h 25.5 18.75 23.5 23.74999 22.25001 v -25.5 H 306.5 h -23.74999 -23.5 -18.75 z m 154.5,9.75 V 455.375 H 402.5 v 18.74999 h 15.12501 v 29.875 20.12501 h 33.625 14 v -47.50001 h -14 V 470.375 446.74999 H 429.875 407.00001 v -28.875 z M 156.5,435.62499 v 28.5 h 28.50001 v -28.5 z m 357.23829,2.25 v 28.75 h 28.75 v -28.75 z m 86.85547,10.72461 v 27.52539 h 27.52539 V 448.5996 Z m 48.81056,0.22656 v 26.54883 21.25001 13.5 h 16.61914 v 16.72656 H 619.11329 V 556.625 h -20.36328 v 55.5 h 39.00001 v 1.62499 6.87501 h 57.75 V 562.875 556 h -20.50001 v -29.14844 h 20.29884 v -29.27539 h -19.34766 v -14 -13.5 -21.25001 z M 233.25,457.375 v 26.75 H 260.00001 262.5 v 8.37499 h 10.12501 v 29.375 h 29.375 v -29.375 H 290 v -27.5 H 262.5 V 457.375 h -2.49999 z m 69.25,8.24999 v 7.5 h 7.50001 7.49999 7.50001 3.75 v -7.5 h -3.75 -7.50001 -7.49999 z m 230.25001,9.875 v 17.0625 h 17.0625 v -17.0625 z m 173.50001,18.98828 V 522.875 h 28.38672 v -28.38673 z m -126.1211,0.88673 v 31.3125 h -1.37891 -26.875 v 26.875 h 26.875 12.1875 v -26.875 h 20.50392 V 495.375 Z m -28.25391,58.1875 h -27.75 v 27.75 h 27.75 z M 339.54493,505.87499 v 27.5 h 27.5 v -27.5 z m 154.70508,2.50001 v 16.5 h 16.5 10.75 v -16.5 h -10.75 z m -10.4707,16.5293 v 28.7207 h 28.72071 v -28.7207 z m -47.92188,11.2207 v 28 h 19.6211 v 27 h 37.4414 v -37.44141 h -29.0625 V 536.125 Z m -144.25196,5.76953 v 8.89453 3.38867 h -8.85546 v -8.2168 h -29.16406 v 29.16406 h 29.16406 v 12.25 h -0.75 v 0.75 h -12.5 V 634.125 h 46 13.25 v -12.75 h 10.5 v 26.5 h 29.75 23.5 19.875 v -29.75 h -19.875 -23.5 -1.5 v -36.75 -18 h -28 v 18 h -10.75 v -27.19727 h -28.25 v -5.19727 -7.08593 z m 423.39454,42.67383 v 28.74999 h 28.75 v -28.74999 z m -163.75,28.30664 v 26.5 h 26.5 v -26.5 z m -95.125,0.21288 V 658.875 h 45.78711 9.33789 v -45.78712 h -9.33789 z M 609.25002,651.625 v 27.25 h 27.25 v -27.25 z" /><rect
       style="display:inline;fill:#141414;fill-opacity:1;stroke:none;stroke-width:29.9575;stroke-linecap:square;stroke-linejoin:miter;stroke-miterlimit:3;stroke-dasharray:none;stroke-dashoffset:0"
       id="rect29"
       width="1000"
       height="2.5000002"
       x="0"
       y="498.75"
       inkscape:label="Line" /><path
       id="rect1-5-6"
       style="display:inline;mix-blend-mode:normal;fill:#014691;fill-opacity:1;stroke-width:3.91694;stroke-linecap:round;stroke-linejoin:round;stroke-miterlimit:3;stroke-dasharray:3.91694, 2.93771"
       inkscape:label="Blue Squares"
       d="m 383.75001,310.88085 v 27.5 27.00001 25 h 28.75 11.25 25.70703 v -28.75 h -25.70703 -5.82812 v -19.47657 h -6.67188 v -4.27343 -27.00001 z m 356.125,3.18751 v 19.6875 h -9.875 v 38.75 10.375 h -9.99999 v 37.99999 9.25 10.25001 28.75 h 28.75 1.125 v -28.75 h -1.125 -18.50001 v -10.25001 h 27.75001 v -19 h 10.74999 v -38.74999 -35.1875 h 0.0625 v -23.125 h -8.68749 z m -183.875,7.1875 v 30.25 11.75 h 5.625 v 8.5 17.1875 14.56249 h -9.125 v 24.62501 h -16.25 v 33.24999 h -1.75 -7 v 7.00001 h 7 1.75 v 19.99999 17.375 h -4.25 v 27.875 h -28.5 v 29.50001 h 29.5 9 0.5 v -27.875 h 19 v -18.37501 h 4 v -20.49999 h 14.75 v -1.25 h 4.5 v -27.25 h -4.5 v -10.50001 h -5.5 v -8 h 9.75 v 9.75 h 29.25 v -29.25 h -12.5 v -26.375 -18.12499 -36.0625 -17.1875 h -15 v -10.875 z m -52.5,241.87501 h -22.75 -18.25 v -18.25002 h -22 -19.25 v -7.66404 -11.39845 h -3.22656 v -19.93751 -20.97654 h -7.52344 v -5.93362 -28.25 h -31.75 -20.8125 v -13.02734 -8.81249 h 5.5625 v 8.49999 H 402 h 2.75001 v -8.49999 h 12.0625 v 29.99999 h 37.25 10.1875 v 17.75 h 21.25 0.75 v -21.24999 h -0.75 -18 v -33.75001 h -13.4375 -3.8125 v -22.74999 h -25.25 -20.25 H 402 h -36.99999 -30 v 19.99999 h -8.5 v 18.8125 h -7.68751 v 27 h 27 7.3672 v 11.59767 h 5.28515 v 8.58984 h 8.58008 v 37.54493 11.18162 h 4.87305 v 29.87501 h 14.25 v 8.8164 H 401 v 12.08203 h 14.92383 v 5.74415 h -24.00585 v 12.63086 h -8.23047 -17.625 v 17.625 h 17.625 8.8125 11.92383 v 16.36914 10 h 0.64062 v 12.59766 h 10.38671 v 9.00975 h 28 20.25001 v -28 h -27.38672 v -10.50975 h -1.75 -10.02148 v -3.21681 -4.50585 h 30.625 4 v 10.75586 h 20.75586 15.07617 11.86328 v 13.83789 4.9375 h 25.5 v -25.5 -4.9375 h -5.86327 v -9.375 H 505.4629 v 0.0371 h -10.46289 -7.58203 v -19.75 h 16.08203 z M 647.14649,321.63085 v 26.60352 6.14649 h 26.60352 v -26.60352 -6.14649 z m -432.64648,7.75001 v 29.5 19 28.99999 h 29.5 v -0.0606 h 24.65625 13.5625 v -27.12494 h -13.5625 -24.65625 v -2.31445 -29 -19 z m 259.875,11.875 v 30.625 h 30.625 7.62501 v 10.0625 h 12.06249 10.5625 8.78125 v -12.0625 h -8.78125 -10.5625 -6.4375 v -28.625 h -13.25 z m 208.83008,11.52148 v 10.64844 h 10.64845 9.24999 7.64648 v -10.64844 h -7.64648 -9.24999 z M 320.75,359.88086 v 29 h 29.00001 v -29 z m 340.50001,11.33398 v 30.41601 h 30.41603 v -30.41601 z m -166.75,18.54102 v 28.74999 16.625 12 h 9.75 v 9.50001 h 25 v -15.75 h 3.5 v -12.75 h -3.5 v -15.75 -12 h -6 v -10.625 z m 178.5,22.625 v 27.5 h 27.5 v -27.5 z m -507.03126,4.81445 v 28.75 h 28.75 0.53125 v 9.93556 H 224 v -0.125 h 9.25 v -9.81056 h 18.21875 20.28126 v 27.5 h 28 v -15.8125 h 5.90624 v -28.74999 -0.002 -11.68555 h -25.56249 -28.62501 -28 -28.75 z m 466.65626,13.93554 v 28.875 h 28.875 v -28.875 z m 135.03906,8.72462 v 29 7.80663 22.19338 h 19.71486 v 19.22068 h -18.84572 -29.75 v 29.75 h -19.46092 v 28.75001 17.60157 h 17.52343 v 11.77343 h 20.47265 v 8.71485 h 30.75001 6.87499 v -9.75 h -6.87499 v -10.77344 h 27.31055 v -29.75 -14.06641 h -28.56055 v -2.50001 h 8.71483 v -29 h 21.84572 v -30 H 796.66407 V 469.85547 447.6621 439.85547 Z M 184.125,464.13085 v 29.75001 h 29.50001 v 13.1875 h 8.15233 v 28.0625 h 30.5 v -30.50001 h -9.77733 V 481.56836 H 235.625 v -6.87501 h -18.99999 -2.75 v -10.5625 z m 489.62501,3.96681 v 18.75 h 18.75001 6.78124 v 29.41991 h 0.12695 v 0.17773 h -1.6582 -16.68554 -12.31446 v -2.68553 -9.12892 h -12.87109 v 12.87109 9.12892 h 5 v 10 h 6.45508 v 10.23046 h 30.41601 2.5 v -10.73046 h 10.5 v -17.56445 h 18.0918 v -29.43556 h -0.125 v -2.29883 h -29.43555 v -18.73436 h -6.78124 z m -50.68749,0.7832 v 5.99999 H 599.2422 v 28.25781 8.2422 h 3.3789 v 14.25 7.99999 h -17.60937 v 8.75 h -6.45508 v 6.75001 h -4.68164 -5.8203 -6.0547 -7.74999 v 7.74999 h 7.74999 6.0547 0.82031 v 6.17579 h -17.81837 v 40.5 h 12.6875 v 29.1875 h 8.75 v 11.125 h 10.37501 v 8.0625 h 27 21.74999 v -27 h -13.1875 v -32.6875 h -14.1875 -5.4375 v -29.1875 -7.67577 h 7.95508 12.33594 v -16.47656 -13.27344 h 12.03125 v -0.0234 h 18.2754 v -18.4766 h -6.1465 v -19.62893 h -15.75781 v -4.37888 -3.99221 h 5.8125 v -10.24999 z m -139.40626,15.5625 v 11.8125 h -20.28125 v 8.37499 h -18.125 v 28.25 2.00001 h 27.5 v -2.00001 h 0.75 v -5.87499 h 15.25 v -22.37501 h 15.09375 17.40625 11.34375 v -20.18749 h -11.34375 -17.40625 z m 342.60938,4.17772 v 24.25001 6.00976 h 24.25 v -24.24999 -6.00978 z m -534.66017,28.07227 v 28 h 28 v -28 z m -49.24999,28.02345 v 21.00001 5.74999 h -8.62501 v -20.05664 h -30.49999 v 30.5 h 29.49999 v 19.80664 h 28.28125 v 8.2207 h -8.40038 -30.25001 V 620 h -28.5 v 29 h 29 17.25001 v -8.8125 h 12.5 17.56055 3.06445 5.24218 6.52149 5.38671 v 20.9707 h 32.00001 32 4 v -32.00001 h -4 -32 -32.00001 v 2.72267 h -5.38671 -6.52149 -5.24218 v -9.45508 h 10.51367 v -20.70899 h 28.0625 v -30.25 h -30.25 -18.20704 v -5.74999 -21.00001 z m 505.71681,3.10936 h 8.99608 v 9.375 h -8.99608 z m 87.27734,28.7715 v 14.25 14.25 0.75 h 14.25 v -14.25 -0.75 -14.25 z m -170.32031,23.78319 v 23.72071 h 7.17967 v 8.6875 1.375 h 27.5 v -27.5 -1.375 H 695.209 v -4.90821 h -6.45899 z m 63.48631,43.68556 v 28 h 28 v -28 z m -169.08398,17.05273 v 28 h 28 v -28 z" /></g><metadata
     id="metadata2"><rdf:RDF><cc:Work
         rdf:about=""><cc:license
           rdf:resource="http://creativecommons.org/licenses/by-nc-sa/4.0/" /><dc:title>Center for Metropolitan Studies</dc:title></cc:Work><cc:License
         rdf:about="http://creativecommons.org/licenses/by-nc-sa/4.0/"><cc:permits
           rdf:resource="http://creativecommons.org/ns#Reproduction" /><cc:permits
           rdf:resource="http://creativecommons.org/ns#Distribution" /><cc:requires
           rdf:resource="http://creativecommons.org/ns#Notice" /><cc:requires
           rdf:resource="http://creativecommons.org/ns#Attribution" /><cc:prohibits
           rdf:resource="http://creativecommons.org/ns#CommercialUse" /><cc:permits
           rdf:resource="http://creativecommons.org/ns#DerivativeWorks" /><cc:requires
           rdf:resource="http://creativecommons.org/ns#ShareAlike" /></cc:License></rdf:RDF></metadata></svg>
