<?xml version="1.0" encoding="UTF-8" standalone="no"?>
<!-- Created with Inkscape (http://www.inkscape.org/) -->

<svg
   width="1000"
   height="1000"
   viewBox="0 0 1000 1000"
   version="1.1"
   id="svg1"
   inkscape:version="1.4.2 (ebf0e940d0, 2025-05-08)"
   sodipodi:docname="icon-circular.svg"
   inkscape:export-filename="icon-circular.png"
   inkscape:export-xdpi="96"
   inkscape:export-ydpi="96"
   xmlns:inkscape="http://www.inkscape.org/namespaces/inkscape"
   xmlns:sodipodi="http://sodipodi.sourceforge.net/DTD/sodipodi-0.dtd"
   xmlns="http://www.w3.org/2000/svg"
   xmlns:svg="http://www.w3.org/2000/svg">
  <sodipodi:namedview
     id="namedview1"
     pagecolor="#ffffff"
     bordercolor="#000000"
     borderopacity="0.25"
     inkscape:showpageshadow="2"
     inkscape:pageopacity="0.0"
     inkscape:pagecheckerboard="0"
     inkscape:deskcolor="#d1d1d1"
     inkscape:document-units="px"
     inkscape:zoom="0.5"
     inkscape:cx="373"
     inkscape:cy="429"
     inkscape:window-width="1920"
     inkscape:window-height="1011"
     inkscape:window-x="0"
     inkscape:window-y="0"
     inkscape:window-maximized="1"
     inkscape:current-layer="layer2"
     showguides="true">
    <sodipodi:guide
       position="500,652.04223"
       orientation="-1,0"
       id="guide1"
       inkscape:locked="false"
       inkscape:label=""
       inkscape:color="rgb(0,134,229)" />
    <sodipodi:guide
       position="780.14264,500"
       orientation="0,1"
       id="guide2"
       inkscape:locked="false"
       inkscape:label=""
       inkscape:color="rgb(0,134,229)" />
    <sodipodi:guide
       position="148.15206,489.74707"
       orientation="1,0"
       id="guide8"
       inkscape:locked="false" />
    <sodipodi:guide
       position="814.80983,485.66797"
       orientation="1,0"
       id="guide9"
       inkscape:locked="false" />
  </sodipodi:namedview>
  <defs
     id="defs1">
    <clipPath
       clipPathUnits="userSpaceOnUse"
       id="clipPath29">
      <path
         id="path29"
         style="display:inline;fill:#000000;stroke-width:46.5754;stroke-linejoin:bevel;stroke-miterlimit:3;stroke-dasharray:54.3381, 38.0365"
         d="M 649.99841,145 H 915 v 85 h 85 V 430 H 649.99841 Z"
         sodipodi:nodetypes="ccccccc" />
    </clipPath>
    <clipPath
       clipPathUnits="userSpaceOnUse"
       id="clipPath29-1">
      <path
         id="path29-2"
         style="display:inline;fill:#000000;stroke-width:46.5754;stroke-linejoin:bevel;stroke-miterlimit:3;stroke-dasharray:54.3381, 38.0365"
         d="M 649.99841,145 H 915 v 85 h 85 V 430 H 649.99841 Z"
         sodipodi:nodetypes="ccccccc" />
    </clipPath>
  </defs>
  <g
     inkscape:groupmode="layer"
     id="layer3"
     inkscape:label="Background"
     sodipodi:insensitive="true"
     style="display:inline">
    <rect
       style="fill:#ffffff;stroke-width:11.5633;stroke-linecap:round;stroke-linejoin:round;stroke-miterlimit:3;stroke-dasharray:11.5633, 8.67244"
       id="rect1"
       width="1000"
       height="1000"
       x="0"
       y="0" />
  </g>
  <g
     inkscape:groupmode="layer"
     id="layer2"
     inkscape:label="Icon"
     sodipodi:insensitive="true">
    <g
       id="g1"
       transform="matrix(1.6987511,0,0,1.6987511,-276.95975,-393.24178)">
      <path
         style="display:inline;fill:none;fill-opacity:1;stroke:#215f9a;stroke-width:35;stroke-linecap:butt;stroke-linejoin:bevel;stroke-miterlimit:3;stroke-dasharray:35, 24.5;stroke-dashoffset:0;stroke-opacity:1"
         d="m 650,412.5 c 135,0 310,17.5 310,-67.5 0,-85 -165,-52.5 -165,-115 0,-62.5 147.5,-62.5 147.5,-62.5"
         id="path12"
         sodipodi:nodetypes="czzc"
         clip-path="url(#clipPath29)"
         inkscape:label="Path"
         transform="matrix(0.87212413,0,0,0.87212413,-229.43458,338.31595)" />
      <path
         id="path14-9"
         style="display:inline;fill:#215f9a;fill-opacity:1;stroke-width:15.1579;stroke-linejoin:bevel;stroke-miterlimit:3;stroke-dasharray:17.6841, 12.821"
         d="m 592.54241,338.31595 c -27.6955,0 -50.14715,25.62978 -50.14715,50.14714 0,11.73656 4.26866,21.33979 4.26866,21.33979 0,0 32.38511,73.31825 40.53673,87.43725 1.87869,3.25397 5.34176,3.25343 5.34176,3.25343 0,0 3.45278,7.9e-4 5.31793,-3.22958 8.19413,-14.19264 37.73467,-79.99354 37.73467,-79.99354 0,0 7.09454,-17.07079 7.09454,-28.80735 0,-24.51736 -22.45161,-50.14714 -50.14714,-50.14714 z m 0,28.34403 a 21.803104,21.803104 0 0 1 21.80312,21.80311 21.803104,21.803104 0 0 1 -21.80312,21.8031 21.803104,21.803104 0 0 1 -21.80308,-21.8031 21.803104,21.803104 0 0 1 21.80308,-21.80311 z"
         inkscape:label="Pin 2" />
      <path
         id="path14"
         style="display:inline;fill:#215f9a;fill-opacity:1;stroke-width:30.9747;stroke-linejoin:bevel;stroke-miterlimit:3;stroke-dasharray:36.1372, 26.1995"
         d="m 352.70828,338.31595 c -56.59515,0 -102.47459,52.3739 -102.47459,102.47458 0,23.98342 8.72124,43.60621 8.72124,43.60621 0,0 66.18053,149.82457 82.83818,178.67644 3.83903,6.6494 10.91517,6.64994 10.91517,6.64994 0,0 7.05614,-7.8e-4 10.86748,-6.60225 16.74453,-29.00235 77.10805,-163.46196 77.10805,-163.46196 0,0 14.49904,-34.88496 14.49904,-58.86838 0,-50.10068 -45.87942,-102.47458 -102.47457,-102.47458 z m 0,26.16372 a 78.491173,78.491173 0 0 1 78.49117,78.49118 78.491173,78.491173 0 0 1 -78.49117,78.49117 78.491173,78.491173 0 0 1 -78.49117,-78.49117 78.491173,78.491173 0 0 1 78.49117,-78.49118 z"
         inkscape:label="Pin 1" />
      <path
         id="path12-8-0"
         style="baseline-shift:baseline;display:inline;overflow:visible;vector-effect:none;fill:#215f9a;fill-opacity:1;stroke:none;stroke-width:3.5689;stroke-linecap:round;stroke-linejoin:round;stroke-miterlimit:3;stroke-opacity:1;enable-background:accumulate;stop-color:#000000"
         inkscape:label="Carrot"
         d="m 370.00011,381.92216 a 2.8455897,2.8455897 0 0 0 -1.42464,0.38111 c -4.60665,2.65964 -6.92958,7.65862 -8.19332,12.86363 -3.04072,-1.64106 -6.30139,-2.79149 -9.60858,-2.81171 -1.20609,-0.008 -2.4184,0.13564 -3.62852,0.45989 a 2.8455897,2.8455897 0 0 0 -2.01295,2.01542 c -0.28941,1.08582 -0.42287,2.17694 -0.42556,3.26692 -0.0129,5.15169 2.89539,10.27911 6.06233,14.71433 0.94999,1.33044 1.92178,2.58956 2.89297,3.75817 -0.11631,0.12451 -0.23074,0.25013 -0.34308,0.37691 -3.53639,3.99116 -5.21153,8.85496 -6.30215,12.92515 -0.50631,1.8896 -0.39514,3.8377 -0.24944,6.76178 0.14568,2.92409 0.47369,6.53095 0.94819,10.45329 0.94897,7.84471 2.47548,16.91527 4.35562,24.07815 1.87615,7.14758 4.98375,15.98232 8.02218,23.15046 1.51923,3.58407 3.01074,6.73597 4.38232,9.11388 0.68579,1.18894 1.32751,2.17989 2.03789,3.01351 0.71039,0.83359 1.36396,1.9371 3.48477,1.9371 2.1208,0 2.77291,-1.10159 3.48451,-1.93465 0.71159,-0.83305 1.35526,-1.8238 2.04308,-3.01277 1.37564,-2.37794 2.87184,-5.5303 4.39441,-9.11509 3.04515,-7.16958 6.15375,-16.00581 8.00736,-23.16133 1.85357,-7.15531 3.38132,-16.22037 4.33663,-24.06184 0.47766,-3.92075 0.81043,-7.52678 0.95979,-10.45157 0.14941,-2.92479 0.2635,-4.8759 -0.24426,-6.77092 -1.08365,-4.04423 -2.75885,-8.90678 -6.29523,-12.90342 -0.11652,-0.13166 -0.23512,-0.26223 -0.35592,-0.39148 0.97322,-1.17067 1.94694,-2.43212 2.89892,-3.76533 3.83696,-5.37361 7.29407,-11.76338 5.63672,-17.98125 a 2.8455897,2.8455897 0 0 0 -2.01294,-2.01542 c -1.2101,-0.32425 -2.4224,-0.46726 -3.62849,-0.45989 -3.3812,0.0206 -6.71374,1.22246 -9.81234,2.92237 -1.25711,-5.29305 -3.47449,-10.35948 -7.98638,-12.97232 a 2.8455897,2.8455897 0 0 0 -1.42389,-0.38308 z m -0.0593,6.50271 c 2.06236,2.2918 3.80115,6.73521 4.59891,11.51706 0.64092,3.8417 0.71019,7.89414 0.5861,10.59432 -1.5887,-0.30967 -3.29731,-0.47718 -5.12772,-0.47718 -1.85293,0 -3.58089,0.17079 -5.18601,0.48656 -0.17855,-2.68675 -0.18153,-6.68562 0.41024,-10.50343 0.73958,-4.77135 2.4152,-9.22844 4.71848,-11.61733 z m -19.43255,9.68416 c 2.55595,0.0467 5.71646,1.2247 8.81475,3.06661 -0.52146,4.33673 -0.51131,8.30884 -0.12719,11.26711 -0.35001,0.17563 -0.69117,0.35949 -1.02352,0.55103 -0.95391,-1.09388 -1.90393,-2.2726 -2.77244,-3.48896 -2.81716,-3.94536 -4.72936,-8.31693 -4.8916,-11.39579 z m 38.76183,0 c 0.0744,-0.004 0.14454,0.002 0.21785,0 -0.16224,3.07886 -2.07444,7.45043 -4.89161,11.39579 -0.87011,1.2186 -1.82194,2.39955 -2.7776,3.49513 -0.33528,-0.1935 -0.67946,-0.37913 -1.03267,-0.55647 0.35309,-2.96471 0.2695,-6.88106 -0.29344,-11.16041 3.06802,-1.8521 6.21116,-3.06363 8.77747,-3.17404 z m -19.27202,17.64065 c 6.2758,0 9.84032,2.06939 12.42449,4.9899 2.5842,2.92051 4.07035,6.91 5.06056,10.60543 0.007,0.0265 0.19701,2.27675 0.0575,5.00767 -0.0438,0.85887 -0.10565,1.79419 -0.18425,2.79173 h -8.50625 a 2.8453051,2.8453051 0 0 0 -2.84531,2.8453 2.8453051,2.8453051 0 0 0 2.84531,2.84531 h 7.95029 c -0.0589,0.51689 -0.12064,1.04108 -0.18524,1.57134 -0.8355,6.85811 -2.14351,14.75901 -3.66875,21.19111 h -6.62548 a 2.8453051,2.8453051 0 0 0 -2.8453,2.84529 2.8453051,2.8453051 0 0 0 2.8453,2.84532 h 5.10993 c -1.78728,6.07653 -4.31144,13.06696 -6.74844,18.80468 -1.46508,3.44944 -2.90908,6.46189 -4.08247,8.49023 -0.21432,0.37047 -0.40698,0.66661 -0.59944,0.96524 -0.19135,-0.29787 -0.38276,-0.59276 -0.59575,-0.96202 -1.16996,-2.02838 -2.60989,-5.04131 -4.07233,-8.49146 -0.65893,-1.55452 -1.32468,-3.20095 -1.98085,-4.8963 h 0.95584 a 2.8453051,2.8453051 0 0 0 2.84532,-2.84531 2.8453051,2.8453051 0 0 0 -2.84532,-2.8453 h -3.05673 c -1.44375,-4.10346 -2.73822,-8.21706 -3.67542,-11.78752 -0.62554,-2.38312 -1.21923,-5.03869 -1.76621,-7.81346 h 5.33692 a 2.8453051,2.8453051 0 0 0 2.84531,-2.84532 2.8453051,2.8453051 0 0 0 -2.84531,-2.8453 h -6.36884 c -0.55497,-3.32859 -1.03352,-6.67951 -1.41253,-9.81261 -0.46195,-3.81872 -0.77808,-7.32279 -0.9141,-10.05316 -0.0536,-1.07569 -0.0563,-2.07681 -0.0394,-2.89667 h 8.73498 a 2.8453051,2.8453051 0 0 0 2.84531,-2.84531 2.8453051,2.8453051 0 0 0 -2.84531,-2.84531 h -7.51632 c 0.93449,-2.56467 2.1864,-5.05435 3.94811,-7.04262 2.58053,-2.91239 6.14079,-4.97088 12.4203,-4.97088 z m -0.9183,87.0562 c -0.0766,0.0616 -0.12896,0.0823 -0.13831,0.0786 l -2.6e-4,-2.6e-4 h -2.5e-4 v -2.6e-4 h -2.6e-4 v -2.5e-4 l -2.5e-4,-2.5e-4 v -2.6e-4 l -2.5e-4,-2.5e-4 v -2.5e-4 -2.6e-4 -2.5e-4 l 2.5e-4,-2.6e-4 c 0.002,-0.009 0.0431,-0.039 0.13932,-0.076 z m 1.83858,7.9e-4 c 0.0979,0.038 0.13931,0.0686 0.13979,0.0776 l -2.5e-4,2.5e-4 v 2.5e-4 2.4e-4 2.7e-4 h -2.5e-4 v 2.4e-4 l -2.5e-4,2.6e-4 -2.6e-4,2.5e-4 h -2.4e-4 c -0.008,0.005 -0.0608,-0.0161 -0.13858,-0.0793 z" />
      <path
         id="path10"
         style="display:inline;fill:#215f9a;fill-opacity:1;stroke:none;stroke-width:3.85697;stroke-dasharray:none"
         d="m 323.72102,381.92216 c -2.52915,0 -3.16145,1.89686 -3.16145,2.8453 v 28.76846 c -1.89686,0 -4.10988,-2.52843 -4.10988,-2.52843 v -25.2916 c 0,-0.94844 -0.63227,-3.16145 -3.17899,-3.16145 -2.54672,0 -3.14392,2.21301 -3.14392,3.16145 v 31.61451 c 0,6.32289 5.69061,11.14707 6.95518,11.14707 l -1.26457,72.31521 c -0.0221,1.26457 1.26457,7.58793 7.90363,7.58747 6.63905,-7.8e-4 7.92573,-6.32309 7.90362,-7.58747 l -1.26457,-72.31521 c 1.26457,0 6.95518,-4.82418 6.95518,-11.14707 v -31.61451 c 0,-0.94844 -0.63229,-3.16145 -3.16146,-3.16145 -2.52915,0 -3.16144,2.21301 -3.16144,3.16145 v 25.2916 c 0,0 -2.21302,2.52843 -4.10988,2.52843 v -28.76846 c 0,-0.94844 -0.6323,-2.8453 -3.16145,-2.8453 z m -7.27133,35.40824 c 0,0 2.21302,2.52915 7.27133,2.52915 5.05831,0 7.27133,-2.52915 7.27133,-2.52915 0,0 0,6.32289 -7.27133,6.32289 -7.27133,0 -7.27133,-6.32289 -7.27133,-6.32289 z m 7.27133,13.04394 c 0.63229,0 1.89688,70.41834 1.89688,70.41834 0,0 0,1.26457 -1.89688,1.26457 -1.89688,0 -1.89688,-1.26457 -1.89688,-1.26457 0,0 1.26459,-70.41834 1.89688,-70.41834 z"
         inkscape:label="Fork" />
    </g>
  </g>
  <g
     inkscape:groupmode="layer"
     id="layer1"
     inkscape:label="Mask"
     style="display:none;mix-blend-mode:normal"
     sodipodi:insensitive="true">
    <circle
       style="display:inline;fill:#00ffff;fill-opacity:0.3;stroke-width:20.0616;stroke-linecap:round;stroke-linejoin:round;stroke-miterlimit:3;stroke-dasharray:20.0616, 15.0462"
       id="path1"
       cx="500"
       cy="500"
       r="500" />
  </g>
  <g
     inkscape:groupmode="layer"
     id="layer4"
     inkscape:label="Spacing"
     sodipodi:insensitive="true"
     style="display:none">
    <g
       id="g7"
       transform="matrix(1.0022058,0,0,1.0022058,851.84794,-1.6050057)">
      <path
         style="display:inline;fill:#ff00ff;fill-opacity:1;stroke-width:25.6928;stroke-linejoin:bevel;stroke-miterlimit:3;stroke-dasharray:29.9747, 21.7317"
         d="M 110.86939,463.04346 A 36.956523,36.956523 0 0 1 147.82599,500 36.956523,36.956523 0 0 1 110.86939,536.95651 36.956523,36.956523 0 0 1 73.912992,500 36.956523,36.956523 0 0 1 110.86939,463.04346 Z"
         id="path6" />
      <path
         style="display:inline;fill:#ff00ff;fill-opacity:1;stroke-width:25.6928;stroke-linejoin:bevel;stroke-miterlimit:3;stroke-dasharray:29.9747, 21.7317"
         d="M 36.956397,463.04346 A 36.956523,36.956523 0 0 1 73.912992,500 36.956523,36.956523 0 0 1 36.956397,536.95651 36.956523,36.956523 0 0 1 0,500 36.956523,36.956523 0 0 1 36.956397,463.04346 Z"
         id="path6-9" />
      <path
         style="display:inline;fill:#ff00ff;fill-opacity:1;stroke-width:25.6928;stroke-linejoin:bevel;stroke-miterlimit:3;stroke-dasharray:29.9747, 21.7317"
         d="M -36.956595,463.04346 C -16.546043,463.04342 9.9e-6,479.58944 0,500 c -9.9e-6,20.41054 -16.546053,36.95655 -36.956595,36.95651 0,0.37251 0,-73.91305 0,-73.91305 z"
         id="path6-9-9"
         sodipodi:nodetypes="cscc" />
    </g>
    <g
       id="g8">
      <path
         style="display:inline;fill:#ff00ff;fill-opacity:1;stroke-width:25.7495;stroke-linejoin:bevel;stroke-miterlimit:3;stroke-dasharray:30.0408, 21.7796"
         d="M 111.11395,462.96194 A 37.038042,37.038042 0 0 1 148.15206,500 37.038042,37.038042 0 0 1 111.11395,537.03803 37.038042,37.038042 0 0 1 74.076029,500 37.038042,37.038042 0 0 1 111.11395,462.96194 Z"
         id="path6-7" />
      <path
         style="display:inline;fill:#ff00ff;fill-opacity:1;stroke-width:25.7495;stroke-linejoin:bevel;stroke-miterlimit:3;stroke-dasharray:30.0408, 21.7796"
         d="M 37.037915,462.96194 A 37.038042,37.038042 0 0 1 74.076029,500 37.038042,37.038042 0 0 1 37.037915,537.03803 37.038042,37.038042 0 0 1 0,500 37.038042,37.038042 0 0 1 37.037915,462.96194 Z"
         id="path6-9-6" />
    </g>
  </g>
</svg>
