<?xml version="1.0" encoding="UTF-8" standalone="no"?>
<!-- Created with Inkscape (http://www.inkscape.org/) -->

<svg
   width="1000"
   height="1000"
   viewBox="0 0 1000 1000"
   version="1.1"
   id="svg1"
   inkscape:version="1.4.2 (ebf0e940d0, 2025-05-08)"
   sodipodi:docname="icon-circular.svg"
   inkscape:export-filename="icon-circular.png"
   inkscape:export-xdpi="96"
   inkscape:export-ydpi="96"
   xmlns:inkscape="http://www.inkscape.org/namespaces/inkscape"
   xmlns:sodipodi="http://sodipodi.sourceforge.net/DTD/sodipodi-0.dtd"
   xmlns="http://www.w3.org/2000/svg"
   xmlns:svg="http://www.w3.org/2000/svg">
  <sodipodi:namedview
     id="namedview1"
     pagecolor="#ffffff"
     bordercolor="#000000"
     borderopacity="0.25"
     inkscape:showpageshadow="2"
     inkscape:pageopacity="0.0"
     inkscape:pagecheckerboard="0"
     inkscape:deskcolor="#d1d1d1"
     inkscape:document-units="px"
     inkscape:zoom="0.5"
     inkscape:cx="480"
     inkscape:cy="479"
     inkscape:window-width="1920"
     inkscape:window-height="1011"
     inkscape:window-x="0"
     inkscape:window-y="0"
     inkscape:window-maximized="1"
     inkscape:current-layer="layer2"
     showguides="true">
    <sodipodi:guide
       position="500,652.04223"
       orientation="-1,0"
       id="guide1"
       inkscape:locked="false"
       inkscape:label=""
       inkscape:color="rgb(0,134,229)" />
    <sodipodi:guide
       position="780.14264,500"
       orientation="0,1"
       id="guide2"
       inkscape:locked="false"
       inkscape:label=""
       inkscape:color="rgb(0,134,229)" />
    <sodipodi:guide
       position="148.15206,489.74707"
       orientation="1,0"
       id="guide8"
       inkscape:locked="false" />
    <sodipodi:guide
       position="814.80983,485.66797"
       orientation="1,0"
       id="guide9"
       inkscape:locked="false" />
  </sodipodi:namedview>
  <defs
     id="defs1">
    <clipPath
       clipPathUnits="userSpaceOnUse"
       id="clipPath29">
      <path
         id="path29"
         style="display:inline;fill:#000000;stroke-width:46.5754;stroke-linejoin:bevel;stroke-miterlimit:3;stroke-dasharray:54.3381, 38.0365"
         d="M 649.99841,145 H 915 v 85 h 85 V 430 H 649.99841 Z"
         sodipodi:nodetypes="ccccccc" />
    </clipPath>
    <clipPath
       clipPathUnits="userSpaceOnUse"
       id="clipPath29-1">
      <path
         id="path29-2"
         style="display:inline;fill:#000000;stroke-width:46.5754;stroke-linejoin:bevel;stroke-miterlimit:3;stroke-dasharray:54.3381, 38.0365"
         d="M 649.99841,145 H 915 v 85 h 85 V 430 H 649.99841 Z"
         sodipodi:nodetypes="ccccccc" />
    </clipPath>
  </defs>
  <g
     inkscape:groupmode="layer"
     id="layer3"
     inkscape:label="Background"
     sodipodi:insensitive="true"
     style="display:inline">
    <rect
       style="fill:#ffffff;stroke-width:11.5633;stroke-linecap:round;stroke-linejoin:round;stroke-miterlimit:3;stroke-dasharray:11.5633, 8.67244"
       id="rect1"
       width="1000"
       height="1000"
       x="0"
       y="0" />
  </g>
  <g
     inkscape:groupmode="layer"
     id="layer2"
     inkscape:label="Icon"
     sodipodi:insensitive="true">
    <g
       id="g2"
       transform="matrix(0.666685,0,0,0.66668527,-558.5611,197.03663)">
      <path
         style="baseline-shift:baseline;display:inline;overflow:visible;vector-effect:none;fill:#014691;fill-rule:nonzero;stroke-width:62.7156;stroke-linejoin:bevel;stroke-miterlimit:3;stroke-dasharray:77.7778, 54.4444;enable-background:accumulate;stop-color:#000000"
         d="m 1830.4557,315.12587 c -3.561,0.42353 -7.0995,0.86589 -10.6206,1.32813 l -0.018,0.004 c -23.2895,3.06796 -46.7202,7.04772 -70.1042,12.4132 l 17.3915,75.80729 c 20.5028,-4.70437 41.5083,-8.29473 62.8516,-11.10677 l 0.018,-0.004 c 3.2374,-0.42493 6.4621,-0.8294 9.6701,-1.21093 z m -137.5087,30.13889 c -15.1856,5.47082 -30.5658,12.01511 -45.625,20.31684 l -0.035,0.0178 c -11.6448,6.43518 -23.3688,14.06975 -34.4488,23.53733 l 50.5252,59.13193 c 6.1253,-5.23388 13.4034,-10.09266 21.5451,-14.592 10.5391,-5.80671 22.1096,-10.80624 34.4011,-15.23437 z m -122.4956,106.6276 c -3.3635,11.32504 -4.8942,22.84777 -4.8915,34.19271 -0.028,14.43995 2.6777,29.44613 9.2839,43.82813 5.9374,13.01193 14.2424,23.82573 23.4592,32.69531 l 53.9322,-56.04167 c -3.1858,-3.06577 -5.4192,-6.26853 -6.6406,-8.94966 l -0.069,-0.14756 c -1.2962,-2.81375 -2.2034,-6.80991 -2.1918,-11.25869 v -0.12577 c 0,-4.27636 0.5892,-8.39152 1.6753,-12.0486 z m 115.8029,74.39235 -29.0668,72.13978 c 8.7644,3.53147 17.4567,6.57487 25.9896,9.31855 l 0.026,0.009 c 18.1677,5.82674 36.0788,10.48334 53.4505,14.83507 l 18.902,-75.44291 c -16.8606,-4.22369 -33.1239,-8.49269 -48.5721,-13.44618 l -0.026,-0.009 c -7.2087,-2.31846 -14.127,-4.75478 -20.7031,-7.40453 z m 122.3611,34.01478 -19.3316,75.33853 c 8.8525,2.27185 17.5813,4.61071 26.1676,7.079 15.0833,4.34414 29.5601,9.03398 43.1944,14.50954 l 28.9844,-72.17447 c -17.0215,-6.83585 -34.0249,-12.28469 -50.6727,-17.079 l -0.018,-0.009 c -9.4992,-2.73069 -18.9503,-5.25913 -28.3247,-7.66491 z m 135.0782,54.54427 -45.0825,63.38106 c 1.98,1.40829 3.931,2.89407 5.8464,4.45747 6.4152,5.2364 11.8151,10.98084 15.8724,16.90973 l 0.039,0.052 c 3.9065,5.68771 6.9281,12.11885 8.8194,18.76738 l 74.809,-21.28473 c -4.2094,-14.79731 -10.7936,-28.80909 -19.5095,-41.50174 -8.8955,-12.98911 -19.5216,-23.95066 -30.8464,-33.19444 -3.2151,-2.62431 -6.5311,-5.15662 -9.9479,-7.5868 z m -12.5825,140.86371 c -0.1227,0.78366 -0.3168,1.82457 -0.5859,3.11631 -1.5758,7.53062 -4.5088,14.78591 -8.494,21.05469 l -0.043,0.0693 c -3.9382,6.22509 -9.3182,12.24582 -15.7682,17.64758 l 49.9392,59.62684 c 11.8206,-9.89958 22.6987,-21.70993 31.5234,-35.64671 9.1894,-14.46187 15.5327,-30.36333 18.9801,-46.86631 v -0.0222 c 0.4275,-2.05249 0.8837,-4.37005 1.289,-6.9618 z m -61.862,63.61544 c -6.8076,2.90893 -13.9383,5.53845 -21.3324,7.9514 -14.5499,4.7362 -29.7881,8.5218 -45.5079,11.67969 l 15.3169,76.25433 c 17.9693,-3.6098 36.1602,-8.07889 54.2969,-13.98437 l 0.022,-0.009 c 9.2165,-3.00763 18.5029,-6.4156 27.7647,-10.37325 z m -117.6389,27.64758 -1.5277,0.18667 c -24.1501,2.88633 -48.6336,4.80531 -73.3637,6.14148 l 4.197,77.66494 c 25.994,-1.40445 52.1851,-3.4434 78.4809,-6.58854 l 0.078,-0.009 1.5235,-0.18667 z m -469.388,5.80729 v 77.77778 c 25.6433,10e-4 51.3735,0.28133 77.1919,0.6684 l 1.1632,-77.76909 c -26.0274,-0.39023 -52.1462,-0.67569 -78.3551,-0.67709 z m 132.908,1.60155 -1.3932,77.76476 c 25.9132,0.46338 51.9011,0.93722 77.9687,1.26738 l 0.9853,-77.76911 c -25.7802,-0.32652 -51.6305,-0.79934 -77.5608,-1.26303 z m 208.3377,0.95054 c -25.4731,0.6196 -51.0548,0.80533 -76.7361,0.74651 l -0.178,77.77778 c 26.1698,0.06 52.4423,-0.12689 78.8064,-0.76823 z"
         id="path12-3"
         inkscape:label="Path"
         sodipodi:nodetypes="ccccccccccccccccccccccccssccccccccccsccccccccccccscccccssccccccccssccccccccccccccccccccccccccccccccc" />
      <path
         id="path14-9-5"
         style="display:inline;fill:#014691;fill-opacity:1;stroke-width:38.6231;stroke-linejoin:bevel;stroke-miterlimit:3;stroke-dasharray:45.0602, 32.6687"
         d="m 1932.2222,-25 c -70.5697,0 -127.7778,65.30616 -127.7778,127.77778 0,29.90544 10.8768,54.375 10.8768,54.375 0,0 82.5191,186.81911 103.2899,222.79513 4.787,8.29129 13.6111,8.28993 13.6111,8.28993 0,0 8.7979,0.002 13.5504,-8.22915 20.8791,-36.16367 96.1501,-203.82813 96.1501,-203.82813 0,0 18.0773,-43.49734 18.0773,-73.40278 C 2060,40.30616 2002.792,-25 1932.2222,-25 Z m 0,72.22222 a 55.555556,55.555556 0 0 1 55.5556,55.55556 55.555556,55.555556 0 0 1 -55.5556,55.55555 55.555556,55.555556 0 0 1 -55.5555,-55.55555 55.555556,55.555556 0 0 1 55.5555,-55.55556 z"
         inkscape:label="Pin 2" />
      <path
         id="path14-6"
         style="display:inline;fill:#014691;fill-opacity:1;stroke-width:78.9253;stroke-linejoin:bevel;stroke-miterlimit:3;stroke-dasharray:92.0796, 66.7578"
         d="M 1321.1111,-25 C 1176.9034,-25 1060,108.45171 1060,236.11111 c 0,61.11111 22.2222,111.11111 22.2222,111.11111 0,0 168.6318,381.76158 211.0764,455.27778 9.7821,16.94307 27.8125,16.94444 27.8125,16.94444 0,0 17.9795,-0.002 27.691,-16.82291 42.666,-73.89964 196.4757,-416.51042 196.4757,-416.51042 0,0 36.9444,-88.88889 36.9444,-150 C 1582.2222,108.45171 1465.3188,-25 1321.1111,-25 Z m 0,66.66667 a 200,200 0 0 1 200,200 200,200 0 0 1 -200,200 200,200 0 0 1 -200,-200 200,200 0 0 1 200,-200 z"
         inkscape:label="Pin 1" />
      <path
         id="path12-8-0-2"
         style="baseline-shift:baseline;display:inline;overflow:visible;vector-effect:none;fill:#014691;fill-opacity:1;stroke:none;stroke-width:9.09375;stroke-linecap:round;stroke-linejoin:round;stroke-miterlimit:3;stroke-opacity:1;enable-background:accumulate;stop-color:#000000"
         inkscape:label="Carrot"
         d="m 1365.1717,86.11111 a 7.2507253,7.2507253 0 0 0 -3.6301,0.97109 c -11.738,6.77694 -17.6569,19.51461 -20.877,32.77728 -7.748,-4.18151 -16.0563,-7.11289 -24.4832,-7.1644 -3.0732,-0.0195 -6.1623,0.34562 -9.2457,1.17182 a 7.2507253,7.2507253 0 0 0 -5.1291,5.13542 c -0.7375,2.76673 -1.0775,5.54697 -1.0844,8.3243 -0.033,13.1268 7.3776,26.19174 15.4472,37.49294 2.4206,3.39004 4.8968,6.59834 7.3714,9.57605 -0.2963,0.31724 -0.5879,0.63734 -0.8741,0.96037 -9.011,10.1697 -13.2793,22.56295 -16.0583,32.93402 -1.2901,4.81482 -1.0068,9.77869 -0.6356,17.22942 0.3712,7.45074 1.207,16.64122 2.4161,26.63556 2.418,19.98878 6.3076,43.10109 11.0983,61.35251 4.7806,18.21244 12.6989,40.72387 20.441,58.98871 3.8711,9.13242 7.6716,17.16364 11.1664,23.22267 1.7474,3.02949 3.3826,5.55449 5.1927,7.6786 1.8101,2.12404 3.4754,4.93586 8.8794,4.93586 5.4039,0 7.0655,-2.80693 8.8787,-4.9296 1.8132,-2.12266 3.4533,-4.64715 5.2059,-7.67671 3.5052,-6.05913 7.3176,-14.09153 11.1972,-23.22578 7.7592,-18.26851 15.6801,-40.78371 20.4032,-59.0164 4.723,-18.23213 8.6158,-41.33042 11.05,-61.31093 1.2171,-9.99031 2.065,-19.17867 2.4456,-26.63122 0.3807,-7.45253 0.6714,-12.42407 -0.6224,-17.25269 -2.7612,-10.30493 -7.0297,-22.69498 -16.0406,-32.87864 -0.2969,-0.33548 -0.5991,-0.66819 -0.9069,-0.99752 2.4798,-2.98292 4.9609,-6.19718 7.3866,-9.59428 9.7768,-13.69226 18.5857,-29.97375 14.3627,-45.81724 a 7.2507253,7.2507253 0 0 0 -5.1291,-5.13542 c -3.0834,-0.8262 -6.1724,-1.19061 -9.2456,-1.17182 -8.6155,0.0526 -17.107,3.1149 -25.0024,7.44636 -3.2032,-13.48698 -8.8532,-26.39653 -20.3498,-33.05422 a 7.2507253,7.2507253 0 0 0 -3.6281,-0.97611 z m -0.1511,16.56929 c 5.255,5.83964 9.6855,17.16171 11.7183,29.34612 1.6331,9.78889 1.8096,20.11472 1.4934,26.99493 -4.0481,-0.78904 -8.4017,-1.21588 -13.0657,-1.21588 -4.7214,0 -9.1243,0.43518 -13.2143,1.2398 -0.4549,-6.846 -0.4625,-17.03536 1.0453,-26.76334 1.8845,-12.15769 6.1541,-23.51461 12.023,-29.60163 z m -49.5153,24.67579 c 6.5127,0.11907 14.5659,3.12061 22.4605,7.8139 -1.3287,11.05025 -1.3028,21.17141 -0.3241,28.70923 -0.8918,0.44753 -1.7611,0.91601 -2.6079,1.40407 -2.4307,-2.78728 -4.8514,-5.79071 -7.0644,-8.89007 -7.1783,-10.053 -12.0507,-21.19202 -12.4641,-29.03713 z m 98.7674,0 c 0.1896,-0.009 0.3683,0.004 0.5551,0 -0.4134,7.84511 -5.2858,18.98413 -12.4641,29.03713 -2.2171,3.10506 -4.6424,6.11419 -7.0775,8.90579 -0.8543,-0.49305 -1.7313,-0.96605 -2.6313,-1.41791 0.8997,-7.55427 0.6867,-17.53335 -0.7477,-28.43737 7.8175,-4.71926 15.8264,-7.80631 22.3655,-8.08764 z m -49.1062,44.94938 c 15.9911,0 25.0737,5.27294 31.6583,12.71456 6.5847,7.44162 10.3715,17.60707 12.8946,27.02323 0.018,0.0675 0.502,5.80131 0.1466,12.75984 -0.1117,2.18844 -0.2692,4.57171 -0.4695,7.11349 h -21.6744 a 7.2500002,7.2500002 0 0 0 -7.25,7.25 7.2500002,7.2500002 0 0 0 7.25,7.25 h 20.2578 c -0.15,1.31707 -0.3074,2.65273 -0.472,4.00387 -2.1289,17.47486 -5.4618,37.6068 -9.3482,53.99615 h -16.8821 a 7.2500002,7.2500002 0 0 0 -7.25,7.24996 7.2500002,7.2500002 0 0 0 7.25,7.25004 h 13.0204 c -4.5541,15.48336 -10.9858,33.29536 -17.1954,47.9154 -3.7331,8.78938 -7.4125,16.46527 -10.4024,21.6336 -0.5461,0.94398 -1.037,1.69856 -1.5274,2.45949 -0.4876,-0.759 -0.9753,-1.5104 -1.518,-2.45129 -2.9811,-5.16842 -6.6501,-12.84555 -10.3765,-21.63673 -1.679,-3.961 -3.3754,-8.1562 -5.0473,-12.47605 h 2.4355 a 7.2500002,7.2500002 0 0 0 7.25,-7.25 7.2500002,7.2500002 0 0 0 -7.25,-7.25 h -7.7887 c -3.6788,-10.45584 -6.9772,-20.93753 -9.3652,-30.03526 -1.5939,-6.07234 -3.1067,-12.83887 -4.5004,-19.90916 h 13.5988 a 7.2500002,7.2500002 0 0 0 7.25,-7.25004 7.2500002,7.2500002 0 0 0 -7.25,-7.24998 h -16.2282 c -1.4141,-8.48145 -2.6335,-17.01978 -3.5992,-25.00309 -1.1771,-9.73031 -1.9826,-18.65889 -2.3292,-25.61602 -0.1367,-2.74094 -0.1436,-5.29185 -0.1004,-7.38089 h 22.2572 a 7.2500002,7.2500002 0 0 0 7.25,-7.25002 7.2500002,7.2500002 0 0 0 -7.25,-7.25 h -19.152 c 2.3811,-6.53492 5.571,-12.87878 10.06,-17.94501 6.5753,-7.42094 15.6471,-12.66609 31.6476,-12.66609 z m -2.3399,221.82419 c -0.1951,0.15688 -0.3286,0.20977 -0.3524,0.20022 l -7e-4,-6.5e-4 h -6e-4 v -6.6e-4 h -7e-4 v -6.5e-4 l -6e-4,-6.4e-4 v -6.5e-4 l -6e-4,-6.4e-4 v -6.5e-4 -6.6e-4 -6.2e-4 l 6e-4,-6.7e-4 c 0,-0.0233 0.1098,-0.0993 0.355,-0.19356 z m 4.6848,0.002 c 0.2496,0.0967 0.355,0.17488 0.3562,0.19777 l -6e-4,6.3e-4 v 6.4e-4 6.2e-4 6.7e-4 h -7e-4 v 6.2e-4 l -6e-4,6.7e-4 -7e-4,6.2e-4 h -6e-4 c -0.02,0.0133 -0.1549,-0.0411 -0.3531,-0.202 z" />
      <path
         id="path10-9"
         style="display:inline;fill:#014691;fill-opacity:1;stroke:none;stroke-width:9.82778;stroke-dasharray:none"
         d="m 1247.2499,86.11111 c -6.4444,0 -8.0555,4.83332 -8.0555,7.25 v 73.30367 c -4.8334,0 -10.4722,-6.44256 -10.4722,-6.44256 V 95.77777 c 0,-2.41668 -1.6111,-8.05555 -8.1003,-8.05555 -6.4892,0 -8.0109,5.63887 -8.0109,8.05555 v 80.55557 c 0,16.1111 14.5,28.40337 17.7222,28.40337 L 1227.111,389 c -0.056,3.2222 3.2222,19.33449 20.1389,19.33333 16.9167,-0.002 20.1952,-16.11162 20.1389,-19.33333 l -3.2222,-184.26329 c 3.2222,0 17.7222,-12.29227 17.7222,-28.40337 V 95.77777 c 0,-2.41668 -1.6111,-8.05555 -8.0556,-8.05555 -6.4444,0 -8.0555,5.63887 -8.0555,8.05555 v 64.44445 c 0,0 -5.6389,6.44256 -10.4722,6.44256 V 93.36111 c 0,-2.41668 -1.6112,-7.25 -8.0556,-7.25 z m -18.5277,90.22223 c 0,0 5.6388,6.44443 18.5277,6.44443 12.8889,0 18.5278,-6.44443 18.5278,-6.44443 0,0 0,16.1111 -18.5278,16.1111 -18.5277,0 -18.5277,-16.1111 -18.5277,-16.1111 z m 18.5277,33.2367 c 1.6111,0 4.8334,179.42996 4.8334,179.42996 0,0 0,3.2222 -4.8334,3.2222 -4.8333,0 -4.8333,-3.2222 -4.8333,-3.2222 0,0 3.2222,-179.42996 4.8333,-179.42996 z"
         inkscape:label="Fork" />
    </g>
  </g>
  <g
     inkscape:groupmode="layer"
     id="layer1"
     inkscape:label="Mask"
     style="display:none;mix-blend-mode:normal"
     sodipodi:insensitive="true">
    <circle
       style="display:inline;fill:#00ffff;fill-opacity:0.3;stroke-width:20.0616;stroke-linecap:round;stroke-linejoin:round;stroke-miterlimit:3;stroke-dasharray:20.0616, 15.0462"
       id="path1"
       cx="500"
       cy="500"
       r="500" />
  </g>
  <g
     inkscape:groupmode="layer"
     id="layer4"
     inkscape:label="Spacing"
     style="display:none"
     sodipodi:insensitive="true">
    <g
       id="g3"
       transform="translate(405.99999,-264.03807)">
      <path
         style="display:inline;fill:#ff00ff;fill-opacity:1;stroke-width:25.7494;stroke-linejoin:bevel;stroke-miterlimit:3;stroke-dasharray:30.041, 21.7797"
         d="m -294.88579,727 a 37.038056,37.038071 0 0 1 37.03803,37.03807 37.038056,37.038071 0 0 1 -37.03803,37.03807 37.038056,37.038071 0 0 1 -37.0381,-37.03807 A 37.038056,37.038071 0 0 1 -294.88579,727 Z"
         id="path2-2" />
      <path
         style="display:inline;fill:#ff00ff;fill-opacity:1;stroke-width:25.7494;stroke-linejoin:bevel;stroke-miterlimit:3;stroke-dasharray:30.041, 21.7797"
         d="m -368.96189,727 a 37.038056,37.038071 0 0 1 37.038,37.03807 37.038056,37.038071 0 0 1 -37.038,37.03807 37.038056,37.038071 0 0 1 -37.0381,-37.03807 A 37.038056,37.038071 0 0 1 -368.96189,727 Z"
         id="path2-7-8" />
    </g>
    <g
       id="g4">
      <path
         style="display:inline;fill:#ff00ff;fill-opacity:1;stroke-width:25.7494;stroke-linejoin:bevel;stroke-miterlimit:3;stroke-dasharray:30.041, 21.7797"
         d="M 962.96197,462.96193 A 37.038056,37.038071 0 0 1 1000,500 37.038056,37.038071 0 0 1 962.96197,537.03807 37.038056,37.038071 0 0 1 925.92387,500 a 37.038056,37.038071 0 0 1 37.0381,-37.03807 z"
         id="path2" />
      <path
         style="display:inline;fill:#ff00ff;fill-opacity:1;stroke-width:25.7494;stroke-linejoin:bevel;stroke-miterlimit:3;stroke-dasharray:30.041, 21.7797"
         d="M 888.88587,462.96193 A 37.038056,37.038071 0 0 1 925.92387,500 37.038056,37.038071 0 0 1 888.88587,537.03807 37.038056,37.038071 0 0 1 851.84777,500 a 37.038056,37.038071 0 0 1 37.0381,-37.03807 z"
         id="path2-7" />
      <path
         style="display:inline;fill:#ff00ff;fill-opacity:1;stroke-width:25.7494;stroke-linejoin:bevel;stroke-miterlimit:3;stroke-dasharray:30.041, 21.7797"
         d="m 814.80977,462.96193 c 20.45553,3e-5 37.038,16.58253 37.038,37.03807 0,20.45554 -16.58247,37.03804 -37.038,37.03807 -2e-5,-14.74994 0,-59.82603 0,-74.07614 z"
         id="path2-7-3"
         sodipodi:nodetypes="cscc" />
    </g>
  </g>
</svg>
