<?xml version="1.0" encoding="UTF-8" standalone="no"?>
<!-- Created with Inkscape (http://www.inkscape.org/) -->

<svg
   width="1000"
   height="184.5"
   viewBox="0 0 1000 184.5"
   version="1.1"
   id="svg1"
   inkscape:version="1.4.2 (ebf0e940d0, 2025-05-08)"
   sodipodi:docname="name-horizontal.svg"
   inkscape:export-filename="name-horizontal.png"
   inkscape:export-xdpi="192"
   inkscape:export-ydpi="192"
   xmlns:inkscape="http://www.inkscape.org/namespaces/inkscape"
   xmlns:sodipodi="http://sodipodi.sourceforge.net/DTD/sodipodi-0.dtd"
   xmlns="http://www.w3.org/2000/svg"
   xmlns:svg="http://www.w3.org/2000/svg"
   xmlns:rdf="http://www.w3.org/1999/02/22-rdf-syntax-ns#"
   xmlns:cc="http://creativecommons.org/ns#"
   xmlns:dc="http://purl.org/dc/elements/1.1/">
  <title
     id="title1">AcessoSAN</title>
  <sodipodi:namedview
     id="namedview1"
     pagecolor="#ffffff"
     bordercolor="#000000"
     borderopacity="0.25"
     inkscape:showpageshadow="2"
     inkscape:pageopacity="0.0"
     inkscape:pagecheckerboard="0"
     inkscape:deskcolor="#d1d1d1"
     inkscape:document-units="px"
     inkscape:zoom="0.99906609"
     inkscape:cx="507.47393"
     inkscape:cy="134.62573"
     inkscape:window-width="1920"
     inkscape:window-height="1011"
     inkscape:window-x="0"
     inkscape:window-y="0"
     inkscape:window-maximized="1"
     inkscape:current-layer="layer4" />
  <defs
     id="defs1" />
  <g
     inkscape:label="Text"
     inkscape:groupmode="layer"
     id="layer1"
     transform="matrix(2.8533189,0,0,2.8533189,-821.75584,-670.52985)"
     sodipodi:insensitive="true"
     style="display:none">
    <text
       xml:space="preserve"
       style="font-style:normal;font-variant:normal;font-weight:bold;font-stretch:normal;font-size:77.5839px;font-family:Anton;-inkscape-font-specification:'Anton Bold';text-align:start;letter-spacing:0px;word-spacing:0px;writing-mode:lr-tb;direction:ltr;text-anchor:start;display:inline;fill:#014691;stroke-width:4.65498;stroke-linecap:round;stroke-linejoin:round;stroke-miterlimit:3;stroke-dasharray:4.65498, 3.49125"
       x="273.18445"
       y="313.99808"
       id="text2-6-9"
       transform="scale(1.0498652,0.95250324)"
       inkscape:label="AcessoSAN"><tspan
         sodipodi:role="line"
         id="tspan2-1-1"
         x="273.18445"
         y="313.99808"
         style="font-size:77.5839px;letter-spacing:0px;fill:#014691;stroke-width:4.65498">AcessoSAN</tspan></text>
  </g>
  <g
     inkscape:groupmode="layer"
     id="layer4"
     inkscape:label="Merged"
     sodipodi:insensitive="true">
    <path
       d="M 1.9818544e-6,191.9707 18.375607,1.7291458 H 82.906408 L 100.95774,191.9707 H 64.96317 L 62.260875,161.27263 H 39.345415 L 36.967396,191.9707 Z M 42.04771,130.89884 H 59.342397 L 51.019329,34.156684 H 49.28986 Z m 118.68479,62.80133 q -27.23913,0 -38.69686,-13.94384 Q 110.686,165.81249 110.686,138.78954 V 88.851132 q 0,-20.321258 4.32367,-33.832732 4.32367,-13.511474 15.13285,-20.213165 10.80918,-6.701692 30.04952,-6.701692 13.40338,0 23.99638,4.756039 10.70109,4.756039 16.86232,13.943842 6.16123,9.187802 6.16123,22.483093 v 24.753021 h -39.4535 V 71.340261 q 0,-5.620773 -1.62138,-9.403986 -1.62138,-3.891305 -7.02597,-3.891305 -9.51207,0 -9.51207,13.511475 v 78.582735 q 0,4.97222 2.16183,9.1878 2.16184,4.10749 7.13406,4.10749 5.08032,0 7.02597,-3.9994 2.05374,-4.10749 2.05374,-9.51207 v -27.23914 h 39.23732 v 28.32005 q 0,13.40339 -6.05314,23.02356 -5.94505,9.51207 -16.42995,14.59239 -10.4849,5.08031 -23.99638,5.08031 z m 105.3895,0 q -17.29468,0 -27.5634,-6.48551 -10.26872,-6.4855 -14.70049,-18.69988 -4.43176,-12.21437 -4.43176,-29.40096 V 73.934464 q 0,-22.591185 12.97101,-34.157007 12.97102,-11.673914 35.6703,-11.673914 46.69565,0 46.69565,45.830921 V 85.71647 q 0,21.40217 -0.43237,28.75242 h -56.20773 v 31.34662 q 0,4.32367 0.54046,8.53925 0.54046,4.10749 2.37802,6.80978 1.94565,2.7023 6.16123,2.7023 6.05314,0 7.56643,-5.18841 1.51328,-5.2965 1.51328,-13.72766 v -15.56522 h 38.48068 v 9.18781 q 0,18.15942 -4.53985,30.48188 -4.43177,12.21438 -15.13285,18.4837 -10.593,6.16123 -28.96861,6.16123 z m -8.21497,-98.471622 h 18.3756 V 73.394005 q 0,-8.755435 -2.16183,-12.538648 -2.16184,-3.891305 -6.48551,-3.891305 -4.64795,0 -7.24215,3.675121 -2.48611,3.675121 -2.48611,12.754832 z m 115.33395,98.471622 q -47.99276,0 -47.99276,-48.64131 v -12.86292 h 38.91304 v 19.02416 q 0,5.51268 2.16184,8.64734 2.16184,3.13466 6.91788,3.13466 8.43116,0 8.43116,-12.64674 0,-10.59299 -4.43177,-15.7814 -4.43176,-5.2965 -10.80918,-10.16063 l -20.64553,-15.88949 q -9.72826,-7.56643 -14.80858,-15.997587 -5.08031,-8.43116 -5.08031,-23.45592 0,-13.943841 6.5936,-23.023552 6.70169,-9.07971 17.61896,-13.511474 11.02536,-4.431764 23.7802,-4.431764 47.12802,0 47.12802,47.019931 v 3.02657 h -39.99397 v -6.161232 q 0,-4.864131 -1.72946,-9.403986 -1.62138,-4.539856 -6.48551,-4.539856 -8.21498,0 -8.21498,8.647344 0,8.755435 6.91788,13.727658 l 23.99637,17.51087 q 11.24155,8.106888 18.80798,19.240338 7.67451,11.13346 7.67451,29.61715 0,22.91546 -13.0791,34.91365 -12.97102,11.99819 -35.67029,11.99819 z m 105.06521,0 q -47.99276,0 -47.99276,-48.64131 v -12.86292 h 38.91305 v 19.02416 q 0,5.51268 2.16184,8.64734 2.16183,3.13466 6.91787,3.13466 8.43116,0 8.43116,-12.64674 0,-10.59299 -4.43176,-15.7814 -4.43177,-5.2965 -10.80918,-10.16063 l -20.64553,-15.88949 q -9.72827,-7.56643 -14.80858,-15.997587 -5.08031,-8.43116 -5.08031,-23.45592 0,-13.943841 6.5936,-23.023552 6.70169,-9.07971 17.61896,-13.511474 11.02536,-4.431764 23.78019,-4.431764 47.12802,0 47.12802,47.019931 v 3.02657 H 486.0888 v -6.161232 q 0,-4.864131 -1.72947,-9.403986 -1.62138,-4.539856 -6.48551,-4.539856 -8.21497,0 -8.21497,8.647344 0,8.755435 6.91787,13.727658 l 23.99638,17.51087 q 11.24155,8.106888 18.80797,19.240338 7.67452,11.13346 7.67452,29.61715 0,22.91546 -13.07911,34.91365 -12.97101,11.99819 -35.67029,11.99819 z m 107.76751,0 q -48.42512,0 -48.42512,-50.26268 V 78.366228 q 0,-22.915461 12.86292,-36.535027 12.86293,-13.727658 35.5622,-13.727658 22.80737,0 35.67029,13.727658 12.86293,13.619566 12.86293,36.535027 v 65.071262 q 0,50.26268 -48.53322,50.26268 z m 0,-29.83333 q 4.86413,0 6.91788,-3.45894 2.16183,-3.56703 2.16183,-8.97162 V 72.204995 q 0,-14.160025 -9.07971,-14.160025 -9.07971,0 -9.07971,14.160025 v 79.231285 q 0,5.40459 2.05375,8.97162 2.16183,3.45894 7.02596,3.45894 z m 108.63228,29.83333 q -26.05012,0 -37.61594,-12.97101 -11.45773,-12.97102 -11.45773,-41.29107 V 120.8463 h 37.61594 v 23.7802 q 0,6.5936 1.94566,10.37681 2.05374,3.67512 7.02596,3.67512 5.18841,0 7.13406,-3.02657 2.05374,-3.02657 2.05374,-9.94444 0,-8.75544 -1.72946,-14.5924 -1.72947,-5.94505 -6.05314,-11.24154 -4.21558,-5.40459 -11.78201,-12.53865 L 664.76456,91.121059 Q 645.63231,73.06973 645.63231,49.829994 q 0,-24.320654 11.24155,-37.075485 11.34963,-12.75483193797 32.75181,-12.75483193797 26.15821,0 37.07548,13.94384093797 11.02537,13.943842 11.02537,42.371984 H 699.02965 V 43.236395 q 0,-3.891305 -2.26992,-6.053141 -2.16184,-2.161836 -5.94505,-2.161836 -4.53986,0 -6.70169,2.594203 -2.05375,2.486112 -2.05375,6.485508 0,3.999396 2.16184,8.647344 2.16183,4.647947 8.53925,10.701087 l 21.94263,21.0779 q 6.5936,6.269324 12.10629,13.295291 5.51268,6.917879 8.86352,16.213769 3.35085,9.1878 3.35085,22.48309 0,26.80677 -9.94445,42.04771 -9.83635,15.13285 -34.37319,15.13285 z m 51.77596,-1.72947 18.3756,-190.2415542 h 64.5308 L 847.43967,191.9707 H 811.4451 l -2.70229,-30.69807 h -22.91546 l -2.37802,30.69807 z m 42.0477,-61.07186 h 17.29469 l -8.32307,-96.742156 h -1.72947 z m 70.58394,61.07186 V 1.7291458 h 39.12923 L 915.75368,92.850528 V 1.7291458 h 36.75121 V 191.9707 H 915.32131 L 896.29716,96.849924 V 191.9707 Z"
       id="text2-6-9-9"
       style="font-weight:bold;font-size:221.372px;font-family:Anton;-inkscape-font-specification:'Anton Bold';letter-spacing:0px;word-spacing:0px;fill:#014691;stroke-width:13.2821;stroke-linecap:round;stroke-linejoin:round;stroke-miterlimit:3;stroke-dasharray:13.2821, 9.96165"
       inkscape:label="AcessoSAN"
       transform="scale(1.0498652,0.95250324)"
       aria-label="AcessoSAN" />
  </g>
  <metadata
     id="metadata1">
    <rdf:RDF>
      <cc:Work
         rdf:about="">
        <cc:license
           rdf:resource="http://creativecommons.org/licenses/by-nc-sa/4.0/" />
        <dc:title>AcessoSAN</dc:title>
      </cc:Work>
      <cc:License
         rdf:about="http://creativecommons.org/licenses/by-nc-sa/4.0/">
        <cc:permits
           rdf:resource="http://creativecommons.org/ns#Reproduction" />
        <cc:permits
           rdf:resource="http://creativecommons.org/ns#Distribution" />
        <cc:requires
           rdf:resource="http://creativecommons.org/ns#Notice" />
        <cc:requires
           rdf:resource="http://creativecommons.org/ns#Attribution" />
        <cc:prohibits
           rdf:resource="http://creativecommons.org/ns#CommercialUse" />
        <cc:permits
           rdf:resource="http://creativecommons.org/ns#DerivativeWorks" />
        <cc:requires
           rdf:resource="http://creativecommons.org/ns#ShareAlike" />
      </cc:License>
    </rdf:RDF>
  </metadata>
</svg>
