<?xml version="1.0" encoding="UTF-8" standalone="no"?>
<!-- Created with Inkscape (http://www.inkscape.org/) -->

<svg
   width="2400"
   height="1600"
   viewBox="0 0 635 423.33333"
   version="1.1"
   id="svg1"
   xml:space="preserve"
   inkscape:version="1.4.2 (ebf0e940d0, 2025-05-08)"
   sodipodi:docname="og-image-white.svg"
   inkscape:export-filename="og-image.png"
   inkscape:export-xdpi="96"
   inkscape:export-ydpi="96"
   xmlns:inkscape="http://www.inkscape.org/namespaces/inkscape"
   xmlns:sodipodi="http://sodipodi.sourceforge.net/DTD/sodipodi-0.dtd"
   xmlns="http://www.w3.org/2000/svg"
   xmlns:svg="http://www.w3.org/2000/svg"><sodipodi:namedview
     id="namedview1"
     pagecolor="#505050"
     bordercolor="#eeeeee"
     borderopacity="1"
     inkscape:showpageshadow="0"
     inkscape:pageopacity="0"
     inkscape:pagecheckerboard="0"
     inkscape:deskcolor="#505050"
     inkscape:document-units="px"
     showguides="true"
     inkscape:zoom="0.25"
     inkscape:cx="1056"
     inkscape:cy="818"
     inkscape:window-width="1920"
     inkscape:window-height="1011"
     inkscape:window-x="0"
     inkscape:window-y="0"
     inkscape:window-maximized="1"
     inkscape:current-layer="layer2"><sodipodi:guide
       position="317.5,451.79406"
       orientation="-1,0"
       id="guide1"
       inkscape:locked="false"
       inkscape:label=""
       inkscape:color="rgb(0,134,229)" /><sodipodi:guide
       position="426.14259,211.66667"
       orientation="0,1"
       id="guide2"
       inkscape:locked="false"
       inkscape:label=""
       inkscape:color="rgb(0,134,229)" /></sodipodi:namedview><defs
     id="defs1"><style
       id="style1">
      .c {
        fill: #9ecd7a;
      }

      .c, .d, .e, .f {
        stroke-width: 0px;
      }

      .d {
        fill: #513024;
      }

      .e {
        fill: #ed6b4d;
      }

      .f {
        fill: #006909;
      }
    </style></defs><g
     inkscape:label="Background"
     inkscape:groupmode="layer"
     id="layer1"
     sodipodi:insensitive="true"><rect
       style="fill:#014691;stroke:none;stroke-width:1.0803"
       id="rect1"
       width="635"
       height="423.33334"
       x="0"
       y="0"
       inkscape:label="Blue" /></g><g
     inkscape:groupmode="layer"
     id="layer2"
     inkscape:label="Logo"
     sodipodi:insensitive="true"><g
       id="g2"
       style="fill:#ffffff"
       transform="matrix(1.92,0,0,1.92,-741.17198,353.7636)"
       inkscape:label="Group"><path
         style="baseline-shift:baseline;display:inline;overflow:visible;vector-effect:none;fill:#ffffff;fill-rule:nonzero;stroke-width:0.264583;stroke-linejoin:bevel;stroke-miterlimit:3;stroke-dasharray:9.26042, 6.48229;enable-background:accumulate;stop-color:#000000"
         d="m 656.35321,-90.737075 c -0.42399,0.05043 -0.84529,0.103095 -1.26453,0.158131 l -0.002,5.3e-4 c -2.77291,0.365278 -5.56262,0.839118 -8.34678,1.477946 l 2.07067,9.025805 c 2.44111,-0.560115 4.94209,-0.987591 7.48327,-1.3224 l 0.002,-5.3e-4 c 0.38546,-0.05059 0.76941,-0.09875 1.15135,-0.144176 z m -16.37213,3.588412 c -1.80805,0.65137 -3.63924,1.430549 -5.43223,2.418974 l -0.004,0.0021 c -1.38646,0.766188 -2.78235,1.67518 -4.10156,2.802414 l 6.01566,7.040395 c 0.72929,-0.62316 1.59583,-1.201658 2.56522,-1.73736 1.2548,-0.691361 2.63241,-1.286618 4.09587,-1.813843 z m -14.58464,12.695348 c -0.40046,1.348388 -0.58272,2.720314 -0.58239,4.07107 -0.003,1.719257 0.3188,3.50593 1.10536,5.218287 0.70692,1.549233 1.69573,2.836751 2.79311,3.892785 l 6.42131,-6.67246 c -0.37931,-0.36502 -0.64523,-0.746348 -0.79065,-1.06557 l -0.008,-0.01757 c -0.15434,-0.335013 -0.26234,-0.810805 -0.26097,-1.340488 v -0.01497 c -2.7e-4,-0.509154 0.0701,-0.999115 0.19947,-1.434537 z m 13.78779,8.85734 -3.46077,8.589142 c 1.04351,0.420466 2.07844,0.78282 3.09438,1.109491 l 0.003,0.0011 c 2.16309,0.693746 4.29564,1.248172 6.36395,1.7663 l 2.25051,-8.982421 c -2.00745,-0.502883 -3.94381,-1.011161 -5.78311,-1.600936 l -0.003,-0.0011 c -0.85829,-0.276043 -1.68199,-0.566116 -2.46497,-0.881602 z m 14.56862,4.049885 -2.30167,8.969994 c 1.05399,0.270491 2.09326,0.548962 3.11557,0.842843 1.79585,0.517223 3.5195,1.075608 5.14284,1.727541 l 3.45095,-8.593272 c -2.02662,-0.813893 -4.05109,-1.462646 -6.03322,-2.033468 l -0.002,-0.0011 c -1.13099,-0.325122 -2.25627,-0.626165 -3.3724,-0.912603 z m 16.08274,6.494176 -5.36763,7.546308 c 0.23574,0.167675 0.46803,0.344575 0.69608,0.530717 0.76381,0.623459 1.40673,1.307407 1.8898,2.013316 l 0.005,0.0062 c 0.46513,0.677193 0.82488,1.4429 1.05007,2.234491 l 8.90695,-2.534214 c -0.50119,-1.761805 -1.28513,-3.430082 -2.32286,-4.9413 -1.05912,-1.546516 -2.32429,-2.851626 -3.67264,-3.952213 -0.3828,-0.312457 -0.77762,-0.613961 -1.18443,-0.903304 z m -1.4981,16.771586 c -0.0146,0.0933 -0.0377,0.217238 -0.0698,0.371035 -0.18762,0.896615 -0.53682,1.760448 -1.0113,2.506824 l -0.005,0.0083 c -0.4689,0.741175 -1.10946,1.458018 -1.87741,2.101165 l 5.94588,7.099321 c 1.4074,-1.178668 2.70257,-2.584839 3.75326,-4.244186 1.09412,-1.721866 1.84936,-3.615135 2.25981,-5.580021 l 5.3e-4,-0.0026 c 0.0509,-0.244375 0.10523,-0.520309 0.15348,-0.82889 z m -7.36544,7.574213 c -0.81053,0.346345 -1.65954,0.659421 -2.5399,0.946714 -1.73235,0.563904 -3.54664,1.014627 -5.41828,1.390613 l 1.82367,9.079031 c 2.13947,-0.429792 4.30532,-0.961892 6.46472,-1.665015 l 0.003,-0.0011 c 1.09734,-0.358095 2.203,-0.763857 3.30575,-1.235064 z m -14.00638,3.29179 -0.18191,0.02223 c -2.87537,0.343654 -5.79043,0.572132 -8.73486,0.731221 l 0.49971,9.246981 c 3.0949,-0.167217 6.21329,-0.40998 9.34413,-0.784447 l 0.009,-0.0011 0.18139,-0.02222 z m -55.88652,0.69143 v 9.260417 c 3.05316,1.61e-4 6.11666,0.0335 9.19066,0.07958 l 0.13849,-9.259382 c -3.09888,-0.04646 -6.20865,-0.08045 -9.32915,-0.08062 z m 15.82436,0.190686 -0.16588,9.258866 c 3.0853,0.05517 6.17948,0.111588 9.28315,0.150897 l 0.11731,-9.259385 c -3.06945,-0.03888 -6.14726,-0.09517 -9.23458,-0.150378 z m 24.80521,0.113172 c -3.03289,0.07377 -6.07872,0.09588 -9.1364,0.08888 l -0.0212,9.260416 c 3.11584,0.0071 6.24392,-0.01511 9.38289,-0.09147 z"
         id="path12-5"
         inkscape:label="Path"
         sodipodi:nodetypes="ccccccccccccccccccccccccssccccccccccsccccccccccccscccccssccccccccssccccccccccccccccccccccccccccccccc" /><path
         id="path14-9-3"
         style="display:inline;fill:#ffffff;fill-opacity:1;stroke-width:4.59856;stroke-linejoin:bevel;stroke-miterlimit:3;stroke-dasharray:5.36498, 3.88961"
         d="m 668.46978,-131.23331 c -8.40221,0 -15.21355,7.77551 -15.21354,15.21354 0,3.56062 1.29501,6.47402 1.29501,6.47402 0,0 9.82493,22.243155 12.29796,26.52655 0.56995,0.987182 1.62057,0.98702 1.62057,0.98702 0,0 1.0475,2.65e-4 1.61334,-0.979784 2.48591,-4.305736 11.44788,-24.268286 11.44788,-24.268286 0,0 2.15232,-5.1789 2.15232,-8.73952 0,-7.43803 -6.81133,-15.21354 -15.21354,-15.21354 z m 0,8.59896 a 6.6145832,6.6145832 0 0 1 6.61458,6.61458 6.6145832,6.6145832 0 0 1 -6.61458,6.61458 6.6145832,6.6145832 0 0 1 -6.61458,-6.61458 6.6145832,6.6145832 0 0 1 6.61458,-6.61458 z"
         inkscape:label="Pin 2" /><path
         id="path14-5"
         style="display:inline;fill:#ffffff;fill-opacity:1;stroke-width:9.39705;stroke-linejoin:bevel;stroke-miterlimit:3;stroke-dasharray:10.9632, 7.94835"
         d="m 595.70936,-131.23331 c -17.16972,0 -31.08854,15.88909 -31.08854,31.08854 0,7.276043 2.64583,13.229168 2.64583,13.229168 0,0 20.07772,45.453487 25.13129,54.20651 1.16468,2.017283 3.31142,2.017447 3.31142,2.017447 0,0 2.14068,-2.43e-4 3.29696,-2.002977 5.07992,-8.798677 23.39289,-49.590772 23.39289,-49.590772 0,0 4.39869,-10.583333 4.39869,-17.859376 0,-15.19945 -13.91881,-31.08854 -31.08854,-31.08854 z m 0,7.9375 a 23.8125,23.8125 0 0 1 23.8125,23.8125 23.8125,23.8125 0 0 1 -23.8125,23.812499 23.8125,23.8125 0 0 1 -23.8125,-23.812499 23.8125,23.8125 0 0 1 23.8125,-23.8125 z"
         inkscape:label="Pin 1" /><path
         id="path12-8-0-6"
         style="baseline-shift:baseline;display:inline;overflow:visible;vector-effect:none;fill:#ffffff;fill-opacity:1;stroke:none;stroke-width:1.08273;stroke-linecap:round;stroke-linejoin:round;stroke-miterlimit:3;stroke-opacity:1;enable-background:accumulate;stop-color:#000000"
         inkscape:label="Carrot"
         d="m 600.95533,-118.00414 a 0.86328947,0.86328947 0 0 0 -0.43221,0.11562 c -1.39756,0.80688 -2.10228,2.32346 -2.48567,3.90254 -0.92249,-0.49786 -1.91171,-0.84688 -2.91504,-0.85301 -0.3659,-0.002 -0.73369,0.0412 -1.10081,0.13952 a 0.86328947,0.86328947 0 0 0 -0.61068,0.61144 c -0.0878,0.32941 -0.12829,0.66043 -0.12911,0.99111 -0.004,1.56291 0.8784,3.11845 1.83918,4.464 0.28821,0.40363 0.58303,0.78562 0.87766,1.14015 -0.0353,0.0378 -0.07,0.0759 -0.10408,0.11434 -1.07286,1.21083 -1.58107,2.68641 -1.91193,3.92121 -0.15361,0.57327 -0.11988,1.16428 -0.0757,2.05138 0.0442,0.8871 0.14371,1.981344 0.28766,3.171294 0.2879,2.379914 0.75101,5.131723 1.3214,7.304783 0.56918,2.16842 1.51196,4.848686 2.43376,7.023344 0.46089,1.087329 0.91339,2.043546 1.32949,2.764948 0.20806,0.360699 0.40274,0.661332 0.61826,0.914234 0.21551,0.252894 0.41379,0.587676 1.0572,0.587676 0.6434,0 0.84124,-0.3342 1.05712,-0.58693 0.21588,-0.25273 0.41116,-0.553302 0.61982,-0.914009 0.41735,-0.721415 0.87126,-1.677773 1.33318,-2.765319 0.92383,-2.175094 1.86691,-4.85581 2.42926,-7.02664 0.56233,-2.170763 1.02581,-4.920903 1.31563,-7.299833 0.14491,-1.189471 0.24586,-2.283458 0.29118,-3.170778 0.0453,-0.88732 0.0799,-1.47924 -0.0741,-2.05415 -0.32876,-1.22693 -0.83698,-2.70212 -1.90984,-3.91461 -0.0353,-0.0399 -0.0713,-0.0796 -0.10797,-0.11877 0.29524,-0.35515 0.59065,-0.73785 0.87946,-1.14232 1.16405,-1.63023 2.21286,-3.56875 1.71007,-5.45511 a 0.86328947,0.86328947 0 0 0 -0.61069,-0.61144 c -0.36712,-0.0984 -0.73491,-0.14176 -1.10081,-0.13952 -1.02578,0.006 -2.0368,0.37087 -2.97685,0.88658 -0.38137,-1.60579 -1.05408,-3.14283 -2.42289,-3.93552 a 0.86328947,0.86328947 0 0 0 -0.43197,-0.11621 z m -0.018,1.97278 c 0.62568,0.69528 1.15319,2.04331 1.39521,3.49402 0.19444,1.16549 0.21546,2.39491 0.17781,3.21408 -0.48197,-0.0939 -1.00033,-0.14476 -1.55563,-0.14476 -0.56214,0 -1.08637,0.0518 -1.57333,0.14761 -0.0542,-0.8151 -0.0551,-2.02827 0.12446,-3.18651 0.22438,-1.44752 0.73272,-2.79971 1.43148,-3.52444 z m -5.89541,2.93796 c 0.77542,0.0142 1.73426,0.37155 2.67421,0.93034 -0.1582,1.31567 -0.15512,2.52072 -0.0386,3.41819 -0.10619,0.0533 -0.20968,0.10907 -0.31051,0.16718 -0.2894,-0.33187 -0.57761,-0.68946 -0.8411,-1.05848 -0.85466,-1.19693 -1.43478,-2.52317 -1.48401,-3.45723 z m 11.7595,0 c 0.0226,-10e-4 0.0438,5.3e-4 0.0661,0 -0.0492,0.93406 -0.62935,2.2603 -1.48401,3.45723 -0.26397,0.3697 -0.55274,0.72797 -0.84267,1.06035 -0.10171,-0.0587 -0.20613,-0.11502 -0.31329,-0.16882 0.10713,-0.89943 0.0818,-2.08757 -0.089,-3.38583 0.93077,-0.56188 1.88433,-0.92944 2.6629,-0.96293 z m -5.84671,5.35178 c 1.90394,0 2.98533,0.62781 3.76932,1.51383 0.78399,0.88602 1.23485,2.09634 1.53525,3.21745 0.002,0.008 0.0598,0.69072 0.0175,1.51922 -0.0133,0.26056 -0.0321,0.54432 -0.0559,0.84695 h -2.58062 a 0.86320314,0.86320314 0 0 0 -0.8632,0.863206 0.86320314,0.86320314 0 0 0 0.8632,0.863203 h 2.41195 c -0.0179,0.156813 -0.0366,0.315841 -0.0562,0.47671 -0.25347,2.080602 -0.65029,4.47756 -1.11302,6.428918 h -2.01002 a 0.86320314,0.86320314 0 0 0 -0.86321,0.863197 0.86320314,0.86320314 0 0 0 0.86321,0.863209 h 1.55024 c -0.54223,1.843487 -1.308,3.964228 -2.04733,5.704927 -0.44448,1.046485 -0.88255,1.960396 -1.23853,2.575751 -0.065,0.112392 -0.12347,0.202234 -0.18186,0.292833 -0.058,-0.09037 -0.11612,-0.179832 -0.18074,-0.291857 -0.35494,-0.615365 -0.79178,-1.529424 -1.23546,-2.576124 -0.1999,-0.471606 -0.40187,-0.971097 -0.60094,-1.485429 h 0.28998 a 0.86320314,0.86320314 0 0 0 0.86321,-0.863203 0.86320314,0.86320314 0 0 0 -0.86321,-0.863203 h -0.92734 c -0.43801,-1.244899 -0.83072,-2.492875 -1.11504,-3.576074 -0.18978,-0.722987 -0.3699,-1.528627 -0.53584,-2.370434 h 1.61911 a 0.86320314,0.86320314 0 0 0 0.8632,-0.863208 0.86320314,0.86320314 0 0 0 -0.8632,-0.8632 h -1.93217 c -0.16836,-1.009822 -0.31354,-2.026418 -0.42853,-2.976931 -0.14014,-1.158515 -0.23605,-2.221571 -0.27732,-3.049911 -0.0163,-0.32634 -0.0171,-0.63006 -0.012,-0.87878 h 2.65001 a 0.86320314,0.86320314 0 0 0 0.8632,-0.86321 0.86320314,0.86320314 0 0 0 -0.8632,-0.8632 h -2.28029 c 0.2835,-0.77807 0.6633,-1.53338 1.19777,-2.13658 0.78288,-0.88355 1.86298,-1.50806 3.76805,-1.50806 z m -0.27859,26.410946 c -0.0232,0.01868 -0.0391,0.02498 -0.042,0.02384 l -7e-5,-7.7e-5 h -8e-5 v -7.9e-5 h -8e-5 v -7.7e-5 l -7e-5,-7.7e-5 v -7.6e-5 l -8e-5,-7.7e-5 v -7.7e-5 -7.9e-5 -7.4e-5 l 8e-5,-8e-5 c 5.3e-4,-0.0028 0.0131,-0.01183 0.0423,-0.02304 z m 0.55778,2.62e-4 c 0.0297,0.01151 0.0423,0.02082 0.0424,0.02355 l -8e-5,7.4e-5 v 7.7e-5 7.4e-5 7.9e-5 h -7e-5 v 7.4e-5 l -8e-5,7.9e-5 -8e-5,7.5e-5 h -7e-5 c -0.002,0.0016 -0.0184,-0.0049 -0.042,-0.02405 z" /><path
         id="path10-2"
         style="display:inline;fill:#ffffff;fill-opacity:1;stroke:none;stroke-width:1.17012;stroke-dasharray:none"
         d="m 586.91526,-118.00414 c -0.76729,0 -0.95911,0.57546 -0.95911,0.8632 v 8.72772 c -0.57547,0 -1.24685,-0.76707 -1.24685,-0.76707 v -7.67292 c 0,-0.28773 -0.19181,-0.95911 -0.96443,-0.95911 -0.77262,0 -0.9538,0.67138 -0.9538,0.95911 v 9.59115 c 0,1.91823 1.7264,3.38178 2.11005,3.38178 l -0.38365,21.938844 c -0.007,0.383644 0.38365,2.302013 2.39779,2.301875 2.01415,-1.88e-4 2.4045,-1.91829 2.39779,-2.301875 l -0.38364,-21.938844 c 0.38364,0 2.11005,-1.46355 2.11005,-3.38178 v -9.59115 c 0,-0.28773 -0.19183,-0.95911 -0.95912,-0.95911 -0.76729,0 -0.95912,0.67138 -0.95912,0.95911 v 7.67292 c 0,0 -0.67138,0.76707 -1.24684,0.76707 v -8.72772 c 0,-0.28774 -0.19183,-0.8632 -0.95912,-0.8632 z m -2.20596,10.74208 c 0,0 0.67138,0.76729 2.20596,0.76729 1.53458,0 2.20596,-0.76729 2.20596,-0.76729 0,0 0,1.91823 -2.20596,1.91823 -2.20596,0 -2.20596,-1.91823 -2.20596,-1.91823 z m 2.20596,3.95725 c 0.19183,0 0.57548,21.363374 0.57548,21.363374 0,0 0,0.383644 -0.57548,0.383644 -0.57547,0 -0.57547,-0.383644 -0.57547,-0.383644 0,0 0.38365,-21.363374 0.57547,-21.363374 z"
         inkscape:label="Fork" /><path
         d="m 440.25549,-16.784307 q -11.23012,0 -16.2161,-5.073195 Q 419.1,-26.930697 419.1,-38.007171 v -7.27158 h 16.2161 v 9.300857 q 0,2.578875 0.83877,4.058557 0.88536,1.437403 3.02887,1.437403 2.2367,0 3.07547,-1.183744 0.88536,-1.183746 0.88536,-3.889451 0,-3.424404 -0.74557,-5.707344 -0.74557,-2.325212 -2.60949,-4.396767 -1.81732,-2.113831 -5.07918,-4.904089 l -7.36249,-6.341493 Q 419.1,-63.965018 419.1,-73.054491 q 0,-9.512241 4.84619,-14.500882 4.89279,-4.988643 14.1192,-4.988643 11.27672,0 15.98311,5.453684 4.753,5.453684 4.753,16.572437 h -16.68209 v -5.115471 q 0,-1.521958 -0.97855,-2.36749 -0.93196,-0.845533 -2.56289,-0.845533 -1.95712,0 -2.88908,1.014638 -0.88536,0.972363 -0.88536,2.536599 0,1.564233 0.93196,3.382129 0.93196,1.817896 3.68124,4.185386 l 9.45939,8.24394 q 2.84248,2.452045 5.21898,5.200025 2.3765,2.705704 3.82104,6.341493 1.44454,3.593513 1.44454,8.793537 0,10.484604 -4.28702,16.445607 -4.24042,5.918728 -14.81817,5.918728 z m 22.32045,-0.676427 7.92166,-74.406855 h 27.81902 l 7.78186,74.406855 h -15.51713 l -1.16495,-12.006559 h -9.87878 l -1.02516,12.006559 z m 18.12663,-23.88629 h 7.45568 l -3.58805,-37.837579 h -0.74556 z m 30.4285,23.88629 v -74.406855 h 16.86848 l 7.54888,35.639191 v -35.639191 h 15.84332 v 74.406855 h -16.02972 l -8.20124,-37.203428 v 37.203428 z"
         id="text2-6-9"
         style="font-weight:bold;font-size:343.559px;font-family:Anton;-inkscape-font-specification:'Anton Bold';letter-spacing:0px;word-spacing:0px;display:inline;fill:#ffffff;stroke-width:5.45394;stroke-linecap:round;stroke-miterlimit:3;stroke-dasharray:5.45394, 4.09046"
         aria-label="SAN"
         inkscape:label="SAN" /><path
         d="m 419.09999,-95.836373 3.83063,-35.396957 h 13.45225 l 3.76303,35.396957 h -7.50352 l -0.56333,-5.711787 h -4.77701 l -0.49573,5.711787 z m 8.76537,-11.363227 h 3.6053 l -1.73505,-18.00016 h -0.36053 z m 24.74133,11.685019 q -5.67833,0 -8.06684,-2.594436 -2.36598,-2.594433 -2.36598,-7.622413 v -9.29171 q 0,-3.78103 0.90133,-6.29502 0.90132,-2.51399 3.15463,-3.76093 2.25331,-1.24694 6.2642,-1.24694 2.7941,0 5.00234,0.88493 2.23078,0.88492 3.51516,2.59443 1.28439,1.70951 1.28439,4.18328 v 4.60563 h -8.22458 v -4.2235 q 0,-1.04582 -0.33799,-1.74974 -0.338,-0.72403 -1.46465,-0.72403 -1.98292,0 -1.98292,2.51399 v 14.62136 q 0,0.92515 0.45067,1.70951 0.45066,0.76425 1.48718,0.76425 1.05906,0 1.46465,-0.74414 0.42813,-0.76425 0.42813,-1.76984 v -5.06821 h 8.17951 v 5.26932 q 0,2.49388 -1.26185,4.28384 -1.23932,1.769848 -3.42503,2.715108 -2.18571,0.945261 -5.00235,0.945261 z m 21.96976,0 q -3.60529,0 -5.74593,-1.206714 -2.14065,-1.206715 -3.0645,-3.479365 -0.92386,-2.27264 -0.92386,-5.47044 v -12.12748 q 0,-4.20339 2.70397,-6.35536 2.70397,-2.17209 7.43592,-2.17209 9.73429,0 9.73429,8.52745 v 2.1922 q 0,3.98216 -0.0901,5.34977 h -11.7172 v 5.83245 q 0,0.80448 0.11266,1.58884 0.11267,0.76426 0.49573,1.26705 0.40559,0.5028 1.28438,0.5028 1.26186,0 1.57732,-0.96537 0.31547,-0.98549 0.31547,-2.55421 v -2.89612 h 8.02177 v 1.70951 q 0,3.3788 -0.94639,5.67156 -0.92385,2.272648 -3.15463,3.439138 -2.20824,1.146381 -6.03887,1.146381 z m -1.71251,-18.321949 h 3.83063 v -4.06261 q 0,-1.62906 -0.45067,-2.33298 -0.45066,-0.72403 -1.35198,-0.72403 -0.96893,0 -1.50972,0.68381 -0.51826,0.6838 -0.51826,2.3732 z m 24.04281,18.321949 q -10.0047,0 -10.0047,-9.050359 v -2.39332 h 8.11191 v 3.5397 q 0,1.0257 0.45067,1.60895 0.45066,0.58324 1.44212,0.58324 1.75758,0 1.75758,-2.35309 0,-1.97097 -0.92386,-2.93634 -0.92386,-0.98548 -2.25331,-1.89052 l -4.30382,-2.95645 q -2.02798,-1.40783 -3.08703,-2.97656 -1.05906,-1.56873 -1.05906,-4.36428 0,-2.59444 1.37452,-4.28384 1.39705,-1.6894 3.67289,-2.51399 2.29838,-0.82459 4.95728,-0.82459 9.82443,0 9.82443,8.74868 v 0.56314 h -8.33724 v -1.14638 q 0,-0.90504 -0.36053,-1.74974 -0.338,-0.8447 -1.35199,-0.8447 -1.71251,0 -1.71251,1.60895 0,1.62907 1.44211,2.55422 l 5.00235,3.25813 q 2.34344,1.50839 3.92076,3.57992 1.59985,2.07152 1.59985,5.51066 0,4.263724 -2.72651,6.496147 -2.70397,2.232422 -7.43591,2.232422 z m 21.90215,0 q -10.00469,0 -10.00469,-9.050359 v -2.39332 h 8.11191 v 3.5397 q 0,1.0257 0.45066,1.60895 0.45067,0.58324 1.44212,0.58324 1.75758,0 1.75758,-2.35309 0,-1.97097 -0.92386,-2.93634 -0.92385,-0.98548 -2.25331,-1.89052 l -4.30381,-2.95645 q -2.02798,-1.40783 -3.08704,-2.97656 -1.05905,-1.56873 -1.05905,-4.36428 0,-2.59444 1.37451,-4.28384 1.39706,-1.6894 3.6729,-2.51399 2.29837,-0.82459 4.95728,-0.82459 9.82442,0 9.82442,8.74868 v 0.56314 h -8.33724 v -1.14638 q 0,-0.90504 -0.36053,-1.74974 -0.33799,-0.8447 -1.35198,-0.8447 -1.71252,0 -1.71252,1.60895 0,1.62907 1.44212,2.55422 l 5.00235,3.25813 q 2.34344,1.50839 3.92075,3.57992 1.59985,2.07152 1.59985,5.51066 0,4.263724 -2.7265,6.496147 -2.70397,2.232422 -7.43592,2.232422 z m 22.46549,0 q -10.09482,0 -10.09482,-9.352039 v -12.10737 q 0,-4.26373 2.68144,-6.79783 2.68143,-2.55421 7.41338,-2.55421 4.75448,0 7.43592,2.55421 2.68144,2.5341 2.68144,6.79783 v 12.10737 q 0,9.352039 -10.11736,9.352039 z m 0,-5.550889 q 1.01399,0 1.44212,-0.64358 0.45066,-0.66369 0.45066,-1.66929 v -14.74203 q 0,-2.63466 -1.89278,-2.63466 -1.89278,0 -1.89278,2.63466 v 14.74203 q 0,1.0056 0.42813,1.66929 0.45066,0.64358 1.46465,0.64358 z"
         id="text2-9"
         style="font-weight:bold;font-size:164.78px;font-family:Anton;-inkscape-font-specification:'Anton Bold';letter-spacing:0px;word-spacing:0px;display:inline;fill:#ffffff;stroke-width:2.61584;stroke-linecap:round;stroke-miterlimit:3;stroke-dasharray:2.61584, 1.96189"
         aria-label="Acesso"
         inkscape:label="Acesso" /></g></g></svg>
