<?xml version="1.0" encoding="UTF-8" standalone="no"?>
<!-- Created with Inkscape (http://www.inkscape.org/) -->

<svg
   width="1000"
   height="100"
   viewBox="0 0 264.58333 26.458333"
   version="1.1"
   id="svg1"
   inkscape:version="1.4.2 (ebf0e940d0, 2025-05-08)"
   sodipodi:docname="osf-strip.svg"
   inkscape:export-filename="osf-strip.png"
   inkscape:export-xdpi="240"
   inkscape:export-ydpi="240"
   xmlns:inkscape="http://www.inkscape.org/namespaces/inkscape"
   xmlns:sodipodi="http://sodipodi.sourceforge.net/DTD/sodipodi-0.dtd"
   xmlns="http://www.w3.org/2000/svg"
   xmlns:svg="http://www.w3.org/2000/svg">
  <sodipodi:namedview
     id="namedview1"
     pagecolor="#ffffff"
     bordercolor="#000000"
     borderopacity="0.25"
     inkscape:showpageshadow="2"
     inkscape:pageopacity="0.0"
     inkscape:pagecheckerboard="0"
     inkscape:deskcolor="#d1d1d1"
     inkscape:document-units="px"
     showguides="true"
     inkscape:zoom="0.99906611"
     inkscape:cx="520.48608"
     inkscape:cy="56.552814"
     inkscape:window-width="1920"
     inkscape:window-height="1011"
     inkscape:window-x="0"
     inkscape:window-y="0"
     inkscape:window-maximized="1"
     inkscape:current-layer="layer2">
    <sodipodi:guide
       position="263.22629,25.135416"
       orientation="0,1"
       id="guide1"
       inkscape:locked="false"
       inkscape:label=""
       inkscape:color="rgb(0,134,229)" />
    <sodipodi:guide
       position="266.43012,1.3229167"
       orientation="0,1"
       id="guide2"
       inkscape:locked="false"
       inkscape:label=""
       inkscape:color="rgb(0,134,229)" />
    <sodipodi:guide
       position="259.29166,26.458333"
       orientation="-1,0"
       id="guide3"
       inkscape:locked="false"
       inkscape:label=""
       inkscape:color="rgb(0,134,229)" />
    <sodipodi:guide
       position="5.2916666,10.062755"
       orientation="-1,0"
       id="guide4"
       inkscape:locked="false"
       inkscape:label=""
       inkscape:color="rgb(0,134,229)" />
    <sodipodi:guide
       position="173.03063,13.229166"
       orientation="0,1"
       id="guide5"
       inkscape:locked="false"
       inkscape:label=""
       inkscape:color="rgb(0,134,229)" />
    <sodipodi:guide
       position="129.44593,4.0335226"
       orientation="0,1"
       id="guide6"
       inkscape:locked="false"
       inkscape:label=""
       inkscape:color="rgb(0,134,229)" />
    <sodipodi:guide
       position="99.392807,22.489583"
       orientation="0,1"
       id="guide7"
       inkscape:locked="false"
       inkscape:label=""
       inkscape:color="rgb(0,134,229)" />
    <sodipodi:guide
       position="21.252781,21.449033"
       orientation="1,0"
       id="guide8"
       inkscape:locked="false" />
    <sodipodi:guide
       position="68.692976,32.918926"
       orientation="1,0"
       id="guide9"
       inkscape:locked="false" />
    <sodipodi:guide
       position="44.972815,32.731662"
       orientation="1,0"
       id="guide10"
       inkscape:locked="false" />
    <sodipodi:guide
       position="92.413137,31.561265"
       orientation="1,0"
       id="guide11"
       inkscape:locked="false" />
    <sodipodi:guide
       position="116.1333,31.420817"
       orientation="1,0"
       id="guide12"
       inkscape:locked="false" />
    <sodipodi:guide
       position="166.56338,-7.5393022"
       orientation="1,0"
       id="guide13"
       inkscape:locked="false" />
    <sodipodi:guide
       position="33.112736,41.439417"
       orientation="1,0"
       id="guide15"
       inkscape:locked="false" />
    <sodipodi:guide
       position="56.832897,40.924442"
       orientation="1,0"
       id="guide16"
       inkscape:locked="false" />
    <sodipodi:guide
       position="80.553059,40.456284"
       orientation="1,0"
       id="guide17"
       inkscape:locked="false" />
    <sodipodi:guide
       position="104.27322,40.034941"
       orientation="1,0"
       id="guide18"
       inkscape:locked="false" />
    <sodipodi:guide
       position="139.85366,17.772325"
       orientation="1,0"
       id="guide19"
       inkscape:locked="false" />
    <sodipodi:guide
       position="127.87011,39.519966"
       orientation="1,0"
       id="guide20"
       inkscape:locked="false" />
    <sodipodi:guide
       position="154.57984,17.772324"
       orientation="1,0"
       id="guide21"
       inkscape:locked="false" />
  </sodipodi:namedview>
  <defs
     id="defs1" />
  <g
     inkscape:groupmode="layer"
     id="layer1"
     inkscape:label="Background"
     style="display:inline"
     sodipodi:insensitive="true">
    <rect
       style="fill:#ffffff;fill-opacity:1;stroke-width:1.92737;stroke-linecap:round;stroke-linejoin:round;stroke-miterlimit:3;stroke-dasharray:1.92737, 1.44553;stroke-dashoffset:0"
       id="rect21"
       width="264.58334"
       height="26.458332"
       x="0"
       y="0"
       inkscape:label="White" />
  </g>
  <g
     inkscape:groupmode="layer"
     id="layer2"
     inkscape:label="Graphics"
     sodipodi:insensitive="true">
    <path
       style="fill:none;stroke:#014691;stroke-width:2.63217;stroke-linecap:butt;stroke-linejoin:bevel;stroke-miterlimit:3;stroke-dasharray:2.63217, 1.97412;stroke-dashoffset:0;stroke-opacity:1"
       d="M 21.255142,22.489832 C 33.112736,22.489583 21.252781,3.96875 33.112736,3.96875 c 11.859955,0 0,18.520833 11.860079,18.520833 11.860082,0 0,-18.520833 11.860082,-18.520833 11.859831,0 -4e-6,18.520833 11.860079,18.520833 11.860083,0 5e-6,-18.520833 11.860083,-18.520833 11.860078,0 -5e-6,18.520833 11.860078,18.520833 11.860083,0 3e-6,-18.520833 11.860083,-18.520833 11.86008,0 0.12327,18.520833 11.86008,18.520833 11.73681,0 -0.24674,-18.520833 11.73681,-18.520833 11.98355,0 0,18.45606 11.98329,18.521082"
       id="path1"
       sodipodi:nodetypes="czsszzzzzzc"
       inkscape:label="Path" />
    <path
       id="path14-9"
       style="display:inline;fill:#014691;fill-opacity:1;stroke-width:2.22562;stroke-linejoin:bevel;stroke-miterlimit:3;stroke-dasharray:2.59656, 1.8825"
       d="m 147.21675,1.3229166 c -4.06652,0 -7.36309,3.7632147 -7.36309,7.363091 0,1.7232784 0.62676,3.1333164 0.62676,3.1333164 0,0 4.7551,10.765302 5.952,12.838392 0.27585,0.477779 0.78433,0.4777 0.78433,0.4777 0,0 0.50697,1.28e-4 0.78083,-0.474198 1.20314,-2.083902 5.54058,-11.745432 5.54058,-11.745432 0,0 1.04168,-2.5065 1.04168,-4.2297774 0,-3.5998773 -3.29656,-7.363092 -7.36309,-7.363092 z m 0,4.1617474 a 3.2013444,3.2013444 0 0 1 3.20135,3.2013436 3.2013444,3.2013444 0 0 1 -3.20135,3.2013454 3.2013444,3.2013444 0 0 1 -3.20134,-3.2013454 3.2013444,3.2013444 0 0 1 3.20134,-3.2013436 z"
       inkscape:label="Pin 2" />
    <path
       id="path12-8-0-6"
       style="baseline-shift:baseline;display:inline;overflow:visible;vector-effect:none;fill:#014691;fill-opacity:1;stroke:none;stroke-width:2.82416;stroke-linecap:round;stroke-linejoin:round;stroke-miterlimit:3;stroke-opacity:1;enable-background:accumulate;stop-color:#000000"
       inkscape:label="Carrot"
       d="m 187.87289,-35.289535 a 2.2517811,2.2517811 0 0 0 -1.12734,0.301577 c -3.64536,2.104644 -5.48353,6.060448 -6.48355,10.179296 -2.4062,-1.29861 -4.98646,-2.208974 -7.60351,-2.224971 -0.95441,-0.006 -1.91374,0.107335 -2.87133,0.363918 a 2.2517811,2.2517811 0 0 0 -1.59288,1.594856 c -0.22901,0.859232 -0.33465,1.722663 -0.33677,2.585184 -0.0104,4.076655 2.2912,8.134095 4.79727,11.643788 0.75174,1.0528102 1.52074,2.0491749 2.28927,2.9739318 -0.0921,0.098518 -0.18259,0.1979234 -0.27148,0.2982544 -2.79842,3.1582939 -4.12402,7.00713882 -4.98706,10.227971 -0.40064,1.4952864 -0.31266,3.0368636 -0.19745,5.3507592 0.11529,2.3138956 0.37482,5.1680866 0.75033,8.2719236 0.75092,6.207701 1.95891,13.385448 3.4467,19.053599 1.48463,5.656046 3.94376,12.64718 6.34813,18.319501 1.2022,2.836159 2.38249,5.33033 3.46783,7.212016 0.5427,0.940837 1.0505,1.725 1.61263,2.384663 0.56215,0.659642 1.07934,1.532878 2.75759,1.532878 1.67823,0 2.19427,-0.871718 2.75737,-1.530932 0.56309,-0.659214 1.07246,-1.443218 1.61672,-2.384077 1.08858,-1.881719 2.27257,-4.376258 3.47743,-7.212983 2.40967,-5.673458 4.8696,-12.665765 6.33639,-18.328099 1.46677,-5.662161 2.67572,-12.835553 3.43168,-19.040687 0.37798,-3.102587 0.6413,-5.956116 0.75951,-8.2705774 0.11816,-2.3144538 0.20841,-3.8584098 -0.19328,-5.3579844 -0.85753,-3.20029385 -2.18316,-7.0481424 -4.98158,-10.2107713 -0.0921,-0.1041785 -0.18598,-0.2075222 -0.28165,-0.3097887 0.77012,-0.9263767 1.54066,-1.9245933 2.29398,-2.9795972 3.03628,-4.252261 5.77197,-9.308631 4.46048,-14.228972 a 2.2517811,2.2517811 0 0 0 -1.59288,-1.594856 c -0.95759,-0.256586 -1.91692,-0.369755 -2.87133,-0.363918 -2.67561,0.01643 -5.31273,0.96736 -7.76473,2.312534 -0.99476,-4.188507 -2.74946,-8.197689 -6.3198,-10.265299 a 2.2517811,2.2517811 0 0 0 -1.12677,-0.303137 z m -0.047,5.145746 c 1.63201,1.813555 3.00795,5.329733 3.63923,9.113716 0.50717,3.04003 0.562,6.246816 0.46379,8.38353 -1.25715,-0.245031 -2.60923,-0.377604 -4.05769,-0.377604 -1.46624,0 -2.83363,0.13514 -4.1038,0.385033 -0.14138,-2.126091 -0.14372,-5.290493 0.32464,-8.31161 0.58524,-3.775685 1.9112,-7.302683 3.73383,-9.193065 z m -15.37743,7.663301 c 2.02259,0.03699 4.52357,0.969133 6.97534,2.426679 -0.41265,3.431758 -0.40461,6.574981 -0.10068,8.915923 -0.27699,0.138974 -0.54695,0.284474 -0.80993,0.436044 -0.75486,-0.865614 -1.50662,-1.798356 -2.1939,-2.760895 -2.2293,-3.122053 -3.74247,-6.581377 -3.87085,-9.017751 z m 30.67314,0 c 0.059,-0.0029 0.11425,0.0014 0.17241,0 -0.12833,2.436374 -1.64155,5.895698 -3.87082,9.017751 -0.68856,0.964308 -1.44175,1.89882 -2.198,2.765781 -0.2653,-0.153112 -0.53766,-0.300018 -0.81718,-0.440346 0.27944,-2.346051 0.21337,-5.445146 -0.23214,-8.831492 2.42779,-1.465614 4.91503,-2.424326 6.94581,-2.511694 z m -15.2504,13.9594522 c 4.96618,0 7.78688,1.6375627 9.83179,3.9486257 2.04494,2.3110681 3.22098,5.46804471 4.00453,8.3923205 0.005,0.020867 0.15598,1.8016503 0.0456,3.96269 -0.0347,0.6796403 -0.0837,1.4197871 -0.14581,2.209159 h -6.73119 a 2.2515559,2.2515559 0 0 0 -2.25155,2.2515556 2.2515559,2.2515559 0 0 0 2.25155,2.251558 h 6.29124 c -0.0464,0.409027 -0.0955,0.823831 -0.14659,1.243438 -0.66117,5.426983 -1.6962,11.679147 -2.9032,16.769014 h -5.24288 a 2.2515559,2.2515559 0 0 0 -2.25155,2.251542 2.2515559,2.2515559 0 0 0 2.25155,2.25157 h 4.04363 c -1.41434,4.808502 -3.41176,10.340186 -5.34023,14.880578 -1.15934,2.729624 -2.30199,5.113445 -3.23055,6.71852 -0.16954,0.29316 -0.32205,0.527502 -0.47433,0.763818 -0.15155,-0.235719 -0.30289,-0.469069 -0.47144,-0.761272 -0.92581,-1.605102 -2.06526,-3.989309 -3.22254,-6.719493 -0.52141,-1.230124 -1.04823,-2.532984 -1.56747,-3.874552 h 0.75637 a 2.2515559,2.2515559 0 0 0 2.25157,-2.251556 2.2515559,2.2515559 0 0 0 -2.25157,-2.251556 h -2.41887 c -1.14247,-3.247161 -2.16681,-6.502348 -2.90844,-9.327735 -0.495,-1.88582 -0.96482,-3.987231 -1.39765,-6.182975 h 4.22324 a 2.2515559,2.2515559 0 0 0 2.25155,-2.251571 2.2515559,2.2515559 0 0 0 -2.25155,-2.251548 h -5.03982 c -0.43914,-2.633992 -0.81785,-5.285652 -1.11776,-7.764944 -0.36557,-3.02184 -0.61571,-5.794694 -0.72336,-7.9552982 -0.0425,-0.8512217 -0.0446,-1.6434316 -0.0313,-2.2922044 h 6.91222 a 2.2515559,2.2515559 0 0 0 2.25155,-2.2515633 2.2515559,2.2515559 0 0 0 -2.25155,-2.25155552 h -5.94785 c 0.73947,-2.02948118 1.73014,-3.99962458 3.12423,-5.57299258 2.04202,-2.3046412 4.85935,-3.9335728 9.82846,-3.9335728 z m -0.72667,68.8895928 c -0.0605,0.04872 -0.10199,0.06516 -0.10955,0.06218 l -2.1e-4,-2.01e-4 h -1.8e-4 v -2.06e-4 h -2.1e-4 v -2.01e-4 l -2.1e-4,-2e-4 v -1.99e-4 l -1.8e-4,-2.01e-4 v -2e-4 -2.06e-4 -1.93e-4 l 1.8e-4,-2.09e-4 c 0.001,-0.0073 0.0342,-0.03086 0.11034,-0.0601 z m 1.45493,6.83e-4 c 0.0775,0.03002 0.11033,0.05431 0.11059,0.06143 l -2.1e-4,1.93e-4 v 2.01e-4 1.93e-4 2.06e-4 h -2.1e-4 v 1.93e-4 l -1.8e-4,2.06e-4 -2.1e-4,1.96e-4 h -1.8e-4 c -0.005,0.0042 -0.048,-0.01278 -0.10955,-0.06273 z"
       transform="matrix(0.23684211,0,0,0.23684211,-27.983169,9.7826207)" />
    <path
       id="path10-0"
       style="display:inline;fill:#014691;fill-opacity:1;stroke:none;stroke-width:3.05211;stroke-dasharray:none"
       d="m 151.25118,-35.289538 c -2.00138,0 -2.50172,1.501035 -2.50172,2.251556 v 22.765147 c -1.50104,0 -3.25225,-2.000797 -3.25225,-2.000797 v -20.013833 c 0,-0.750523 -0.50034,-2.501724 -2.51559,-2.501724 -2.01528,0 -2.48787,1.751201 -2.48787,2.501724 v 25.0172902 c 0,5.003457 4.5031,8.8209362 5.5038,8.8209362 l -1.0007,57.2246996 c -0.0183,1.000687 1.0007,6.004509 6.25433,6.004149 5.25365,-4.9e-4 6.27183,-5.003616 6.25433,-6.004149 L 156.50483,1.5507614 c 1.00068,0 5.50377,-3.8174792 5.50377,-8.8209362 V -32.287465 c 0,-0.750523 -0.50034,-2.501724 -2.50171,-2.501724 -2.00138,0 -2.50175,1.751201 -2.50175,2.501724 v 20.013833 c 0,0 -1.75121,2.000797 -3.25222,2.000797 v -22.765147 c 0,-0.750521 -0.50037,-2.251556 -2.50174,-2.251556 z m -5.75397,28.0193632 c 0,0 1.75121,2.0013812 5.75397,2.0013812 4.00275,0 5.75396,-2.0013812 5.75396,-2.0013812 0,0 0,5.003457 -5.75396,5.003457 -5.75397,0 -5.75397,-5.003457 -5.75397,-5.003457 z m 5.75397,10.3219741 c 0.50033,0 1.50104,55.7236617 1.50104,55.7236617 0,0 0,1.000687 -1.50104,1.000687 -1.50104,0 -1.50104,-1.000687 -1.50104,-1.000687 0,0 1.0007,-55.7236617 1.50104,-55.7236617 z"
       inkscape:label="Fork"
       transform="matrix(0.23684211,0,0,0.23684211,-27.983169,9.7826207)" />
  </g>
  <g
     inkscape:groupmode="layer"
     id="layer3"
     inkscape:label="Text"
     sodipodi:insensitive="true">
    <text
       xml:space="preserve"
       style="font-style:normal;font-variant:normal;font-weight:bold;font-stretch:normal;font-size:20.5274px;font-family:Anton;-inkscape-font-specification:'Anton Bold';text-align:start;letter-spacing:0px;word-spacing:0px;writing-mode:lr-tb;direction:ltr;text-anchor:start;display:inline;fill:#014691;stroke-width:1.23163;stroke-linecap:round;stroke-linejoin:round;stroke-miterlimit:3;stroke-dasharray:1.23163, 0.923726"
       x="158.35147"
       y="22.675207"
       id="text2-6-9"
       transform="scale(1.0498652,0.95250324)"
       inkscape:label="AcessoSAN"><tspan
         sodipodi:role="line"
         id="tspan2-1-1"
         x="158.35147"
         y="22.675207"
         style="font-size:20.5274px;letter-spacing:0px;fill:#014691;stroke-width:1.23163">AcessoSAN</tspan></text>
  </g>
</svg>
