<?xml version="1.0" encoding="UTF-8" standalone="no"?>
<!-- Created with Inkscape (http://www.inkscape.org/) -->

<svg
   width="618.42102"
   height="1000"
   viewBox="0 0 618.42102 1000"
   version="1.1"
   id="svg1"
   inkscape:version="1.4.2 (ebf0e940d0, 2025-05-08)"
   sodipodi:docname="pin-1-white.svg"
   inkscape:export-filename="pin-1-white.png"
   inkscape:export-xdpi="96"
   inkscape:export-ydpi="96"
   xmlns:inkscape="http://www.inkscape.org/namespaces/inkscape"
   xmlns:sodipodi="http://sodipodi.sourceforge.net/DTD/sodipodi-0.dtd"
   xmlns="http://www.w3.org/2000/svg"
   xmlns:svg="http://www.w3.org/2000/svg">
  <sodipodi:namedview
     id="namedview1"
     pagecolor="#ffffff"
     bordercolor="#000000"
     borderopacity="0.25"
     inkscape:showpageshadow="2"
     inkscape:pageopacity="0.0"
     inkscape:pagecheckerboard="0"
     inkscape:deskcolor="#d1d1d1"
     inkscape:document-units="px"
     inkscape:zoom="0.49953305"
     inkscape:cx="458.42813"
     inkscape:cy="469.43841"
     inkscape:window-width="1920"
     inkscape:window-height="1011"
     inkscape:window-x="0"
     inkscape:window-y="0"
     inkscape:window-maximized="1"
     inkscape:current-layer="layer1" />
  <defs
     id="defs1">
    <clipPath
       clipPathUnits="userSpaceOnUse"
       id="clipPath29">
      <path
         id="path29"
         style="display:inline;fill:#000000;stroke-width:46.5754;stroke-linejoin:bevel;stroke-miterlimit:3;stroke-dasharray:54.3381, 38.0365"
         d="M 649.99841,145 H 915 v 85 h 85 V 430 H 649.99841 Z"
         sodipodi:nodetypes="ccccccc" />
    </clipPath>
  </defs>
  <g
     inkscape:groupmode="layer"
     id="layer1"
     inkscape:label="Graphics"
     sodipodi:insensitive="true">
    <path
       id="path14-7"
       style="display:inline;fill:#ffffff;fill-opacity:1;stroke-width:93.4642;stroke-linejoin:bevel;stroke-miterlimit:3;stroke-dasharray:109.042, 79.0553"
       d="M 309.21055,-4.1999999e-6 C 138.43819,-4.1999999e-6 6.6842113e-6,158.03491 3.3e-5,309.21052 c 0,72.36842 26.315789,131.57894 26.315789,131.57894 0,0 199.695518,452.08607 249.958938,539.14473 11.58395,20.06416 32.93579,20.06579 32.93579,20.06579 0,0 21.29132,-0.002 32.79185,-19.92187 50.52552,-87.51274 232.66868,-493.23602 232.66868,-493.23602 0,0 43.74999,-105.26315 43.74999,-177.63157 C 618.42107,158.03491 479.98292,-4.1999999e-6 309.21055,-4.1999999e-6 Z m 0,78.9473671999999 A 236.8421,236.8421 0 0 1 546.05265,315.78946 236.8421,236.8421 0 0 1 309.21055,552.63156 236.8421,236.8421 0 0 1 72.368453,315.78946 236.8421,236.8421 0 0 1 309.21055,78.947363 Z"
       inkscape:label="Pin 1" />
    <path
       id="path12-8-0-0"
       style="baseline-shift:baseline;display:inline;overflow:visible;vector-effect:none;fill:#ffffff;fill-opacity:1;stroke:none;stroke-width:10.7689;stroke-linecap:round;stroke-linejoin:round;stroke-miterlimit:3;stroke-opacity:1;enable-background:accumulate;stop-color:#000000"
       inkscape:label="Carrot"
       d="m 361.38766,131.57894 a 8.5863851,8.5863851 0 0 0 -4.29895,1.14997 c -13.90026,8.02532 -20.90947,23.1094 -24.72263,38.81521 -9.17526,-4.95179 -19.01421,-8.42315 -28.99342,-8.48415 -3.63921,-0.0237 -7.29737,0.40926 -10.94868,1.38768 a 8.5863851,8.5863851 0 0 0 -6.07395,6.08142 c -0.87342,3.27637 -1.27605,6.56876 -1.28421,9.85771 -0.0395,15.5449 8.73658,31.01653 18.29263,44.39953 2.86658,4.01452 5.79895,7.81381 8.72947,11.34005 -0.35105,0.37568 -0.69631,0.75476 -1.03526,1.13729 -10.67079,12.04308 -15.72553,26.71929 -19.01632,39.00081 -1.52789,5.70177 -1.19236,11.58003 -0.75263,20.40327 0.43948,8.82323 1.42921,19.70671 2.86105,31.5421 2.86343,23.67092 7.46948,51.04076 13.1429,72.65429 5.66105,21.56737 15.03816,48.22563 24.20631,69.85505 4.58421,10.81471 9.08474,20.32537 13.22343,27.50053 2.06921,3.58755 4.00552,6.57768 6.14921,9.09308 2.14342,2.51531 4.11552,5.8451 10.515,5.8451 6.39947,0 8.3671,-3.324 10.51421,-5.83768 2.14736,-2.51369 4.08947,-5.50321 6.165,-9.09084 4.15079,-7.17529 8.66552,-16.68735 13.25973,-27.50421 9.18869,-21.63377 18.56869,-48.2965 24.16184,-69.88785 5.5929,-21.59068 10.2029,-48.94392 13.08553,-72.60505 1.44132,-11.83063 2.44526,-22.71158 2.89605,-31.53697 0.45079,-8.82537 0.795,-14.71271 -0.7371,-20.43082 -3.26974,-12.20321 -8.32474,-26.87563 -18.99553,-38.93523 -0.35158,-0.39729 -0.70947,-0.79126 -1.07395,-1.18126 2.93658,-3.53243 5.87474,-7.33877 8.74737,-11.36166 11.5779,-16.2145 22.00948,-35.49524 17.00842,-54.25724 a 8.5863851,8.5863851 0 0 0 -6.07394,-6.08145 c -3.65132,-0.97839 -7.30948,-1.40992 -10.94869,-1.38765 -10.20263,0.0624 -20.25842,3.68868 -29.60816,8.81805 -3.79315,-15.97142 -10.48394,-31.25905 -24.09842,-39.14316 a 8.5863851,8.5863851 0 0 0 -4.29631,-1.15592 z m -0.17895,19.62153 c 6.2229,6.91537 11.46974,20.32308 13.87684,34.752 1.93395,11.59207 2.1429,23.82005 1.76842,31.96765 -4.79368,-0.93439 -9.94921,-1.43984 -15.47236,-1.43984 -5.59132,0 -10.80527,0.51534 -15.64869,1.46819 -0.53868,-8.10711 -0.54763,-20.17345 1.2379,-31.69345 2.23184,-14.39726 7.28789,-27.84624 14.23789,-35.05455 z m -58.63658,29.22134 c 7.71237,0.14105 17.24921,3.69545 26.5979,9.25329 -1.57342,13.08581 -1.5429,25.07139 -0.38369,33.99779 -1.05631,0.52994 -2.08552,1.08473 -3.08842,1.66268 -2.87842,-3.30071 -5.745,-6.85739 -8.36579,-10.52771 -8.50052,-11.90487 -14.27052,-25.09579 -14.76,-34.38605 z m 116.96132,0 c 0.22368,-0.0105 0.43605,0.005 0.65736,0 -0.48947,9.29026 -6.25947,22.48118 -14.75999,34.38605 -2.62553,3.67705 -5.49764,7.2405 -8.38132,10.54634 -1.01158,-0.58387 -2.05026,-1.144 -3.11605,-1.6791 1.06552,-8.94584 0.81315,-20.76319 -0.88527,-33.67584 9.25737,-5.58858 18.74158,-9.24432 26.48527,-9.57745 z m -58.15211,53.22952 c 18.93684,0 29.69263,6.24427 37.49026,15.05671 7.79764,8.81245 12.28185,20.85048 15.26974,32.00119 0.0263,0.08 0.59474,6.86997 0.17369,15.11034 -0.13158,2.59158 -0.31895,5.41387 -0.55606,8.42387 h -25.6671 a 8.5855264,8.5855264 0 0 0 -8.58553,8.58552 8.5855264,8.5855264 0 0 0 8.58553,8.58553 h 23.98973 c -0.17631,1.55968 -0.36421,3.14139 -0.55894,4.74142 -2.52132,20.69392 -6.4679,44.53437 -11.07027,63.94282 h -19.9921 a 8.5855264,8.5855264 0 0 0 -8.58553,8.58547 8.5855264,8.5855264 0 0 0 8.58553,8.58558 h 15.41895 c -5.3929,18.33555 -13.00948,39.42871 -20.3629,56.74192 -4.42079,10.40847 -8.77816,19.49834 -12.31868,25.61873 -0.64658,1.11787 -1.22816,2.01145 -1.80869,2.91256 -0.57736,-0.89882 -1.155,-1.78863 -1.79763,-2.90285 -3.53026,-6.1205 -7.87526,-15.21184 -12.28816,-25.62244 -1.98815,-4.69066 -3.9971,-9.65866 -5.9771,-14.77426 h 2.88421 a 8.5855264,8.5855264 0 0 0 8.58553,-8.58553 8.5855264,8.5855264 0 0 0 -8.58553,-8.58553 h -9.22342 c -4.35632,-12.38192 -8.26237,-24.79444 -11.09026,-35.56808 -1.88764,-7.19092 -3.67895,-15.20392 -5.32948,-23.57663 h 16.10369 a 8.5855264,8.5855264 0 0 0 8.58552,-8.58558 8.5855264,8.5855264 0 0 0 -8.58552,-8.5855 h -19.21737 c -1.67474,-10.04381 -3.11869,-20.15499 -4.26237,-29.60892 -1.39395,-11.52273 -2.34763,-22.09605 -2.75816,-30.33476 -0.16316,-3.24584 -0.17105,-6.26666 -0.11842,-8.74052 h 26.35711 a 8.5855264,8.5855264 0 0 0 8.58552,-8.58556 8.5855264,8.5855264 0 0 0 -8.58552,-8.58552 h -22.68 c 2.81973,-7.73871 6.59736,-15.25119 11.91315,-21.25066 7.78658,-8.78795 18.52948,-14.99932 37.47763,-14.99932 z m -2.77079,262.68653 c -0.23158,0.18578 -0.38921,0.24842 -0.41737,0.2371 l -7.9e-4,-7.6e-4 h -7.8e-4 v -7.9e-4 h -7.9e-4 v -7.7e-4 l -7.9e-4,-7.6e-4 v -7.6e-4 l -7.9e-4,-7.6e-4 v -7.7e-4 -7.9e-4 -7.3e-4 l 7.9e-4,-7.9e-4 c 0,-0.0276 0.12894,-0.11764 0.42052,-0.22921 z m 5.54763,0.003 c 0.29553,0.11447 0.42053,0.20711 0.42185,0.23421 l -7.9e-4,7.4e-4 v 7.6e-4 7.4e-4 7.9e-4 h -5.3e-4 v 7.3e-4 l -7.9e-4,7.9e-4 -7.9e-4,7.4e-4 h -7.9e-4 c -0.0263,0.0158 -0.18421,-0.0487 -0.41816,-0.23921 z" />
    <path
       id="path10-9"
       style="display:inline;fill:#ffffff;fill-opacity:1;stroke:none;stroke-width:11.6382;stroke-dasharray:none"
       d="m 221.74345,131.57894 c -7.63158,0 -9.53947,5.72368 -9.53947,8.58553 v 86.80697 c -5.72369,0 -12.40132,-7.62934 -12.40132,-7.62934 v -76.31579 c 0,-2.86187 -1.90789,-9.53947 -9.59237,-9.53947 -7.68473,0 -9.48658,6.6776 -9.48658,9.53947 v 95.39473 c 0,19.07895 17.17106,33.63558 20.98685,33.63558 l -3.81579,218.20652 c -0.0658,3.81577 3.81579,22.89611 23.84868,22.89474 20.03289,-0.002 23.91526,-19.07955 23.84868,-22.89474 l -3.81579,-218.20652 c 3.81579,0 20.98685,-14.55663 20.98685,-33.63558 v -95.39473 c 0,-2.86187 -1.9079,-9.53947 -9.53948,-9.53947 -7.63158,0 -9.53947,6.6776 -9.53947,9.53947 v 76.31579 c 0,0 -6.67763,7.62934 -12.40132,7.62934 v -86.80697 c 0,-2.86185 -1.90789,-8.58553 -9.53947,-8.58553 z m -21.94079,106.8421 c 0,0 6.67763,7.63158 21.94079,7.63158 15.26316,0 21.94079,-7.63158 21.94079,-7.63158 0,0 0,19.07895 -21.94079,19.07895 -21.94079,0 -21.94079,-19.07895 -21.94079,-19.07895 z m 21.94079,39.35927 c 1.90789,0 5.72368,212.48283 5.72368,212.48283 0,0 0,3.81577 -5.72368,3.81577 -5.72368,0 -5.72368,-3.81577 -5.72368,-3.81577 0,0 3.81579,-212.48283 5.72368,-212.48283 z"
       inkscape:label="Fork" />
  </g>
</svg>
